G04*
G04 #@! TF.GenerationSoftware,Altium Limited,Altium Designer,18.1.9 (240)*
G04*
G04 Layer_Color=32768*
%FSLAX25Y25*%
%MOIN*%
G70*
G01*
G75*
%ADD92C,0.00394*%
D92*
X423032Y197500D02*
X426968D01*
X425000Y195531D02*
Y199469D01*
X420079Y188839D02*
Y206161D01*
X429921Y188839D02*
Y206161D01*
X420079Y206161D02*
X429921Y206161D01*
X420079Y188839D02*
X429921D01*
X515500Y282531D02*
Y286469D01*
X513531Y284500D02*
X517469D01*
X506839Y279579D02*
X524161D01*
X506839Y289421D02*
X524161D01*
X506839Y279579D02*
Y289421D01*
X524161Y279579D02*
Y289421D01*
X515500Y272532D02*
Y276468D01*
X513531Y274500D02*
X517469D01*
X506839Y279421D02*
X524161D01*
X506839Y269579D02*
X524161D01*
Y279421D01*
X506839Y269579D02*
Y279421D01*
X582500Y200532D02*
Y204468D01*
X580532Y202500D02*
X584469D01*
X573839Y207421D02*
X591161D01*
X573839Y197579D02*
X591161D01*
Y207421D01*
X573839Y197579D02*
Y207421D01*
X600032Y230000D02*
X603968D01*
X602000Y228031D02*
Y231968D01*
X597079Y221339D02*
Y238661D01*
X606921Y221339D02*
Y238661D01*
X597079D02*
X606921D01*
X597079Y221339D02*
X606921D01*
X590031Y230000D02*
X593968D01*
X592000Y228031D02*
Y231968D01*
X587079Y221339D02*
Y238661D01*
X596921Y221339D02*
Y238661D01*
X587079D02*
X596921D01*
X587079Y221339D02*
X596921D01*
X582500Y175531D02*
Y179469D01*
X580532Y177500D02*
X584469D01*
X563799Y156437D02*
X601201D01*
X563799Y198563D02*
X601201D01*
X563799Y156437D02*
Y198563D01*
X601201Y156437D02*
Y198563D01*
X531339Y254079D02*
Y263921D01*
X548661Y254079D02*
Y263921D01*
X531339Y254079D02*
X548661D01*
X531339Y263921D02*
X548661D01*
X538031Y259000D02*
X541968D01*
X540000Y257031D02*
Y260968D01*
X531339Y276079D02*
Y285921D01*
X548661Y276079D02*
Y285921D01*
X531339Y276079D02*
X548661D01*
X531339Y285921D02*
X548661D01*
X538031Y281000D02*
X541968D01*
X540000Y279031D02*
Y282968D01*
X254500Y184531D02*
Y188469D01*
X252532Y186500D02*
X256469D01*
X235799Y165437D02*
X273201D01*
X235799Y207563D02*
X273201D01*
X235799Y165437D02*
Y207563D01*
X273201Y165437D02*
Y207563D01*
X233425Y154591D02*
Y203409D01*
X186575Y154591D02*
Y203409D01*
X233425D01*
X186575Y154591D02*
X233425D01*
X208032Y179000D02*
X211968D01*
X210000Y177032D02*
Y180968D01*
X254031Y230000D02*
X257968D01*
X256000Y228031D02*
Y231968D01*
X249110Y220158D02*
Y239843D01*
X262890Y220158D02*
Y239843D01*
X249110Y220158D02*
X262890D01*
X249110Y239843D02*
X262890D01*
X542031Y230000D02*
X545968D01*
X544000Y228031D02*
Y231968D01*
X537110Y220158D02*
Y239843D01*
X550890Y220158D02*
Y239843D01*
X537110Y220158D02*
X550890D01*
X537110Y239843D02*
X550890D01*
X182653Y146791D02*
X189347D01*
X182653Y133209D02*
X189347D01*
Y146791D01*
X182653Y133209D02*
Y146791D01*
X186000Y138031D02*
Y141969D01*
X184031Y140000D02*
X187969D01*
X182653Y166791D02*
X189347D01*
X182653Y153209D02*
X189347D01*
Y166791D01*
X182653Y153209D02*
Y166791D01*
X186000Y158031D02*
Y161969D01*
X184031Y160000D02*
X187969D01*
X182653Y186791D02*
X189347D01*
X182653Y173209D02*
X189347D01*
Y186791D01*
X182653Y173209D02*
Y186791D01*
X186000Y178032D02*
Y181968D01*
X184031Y180000D02*
X187969D01*
X182653Y206791D02*
X189347D01*
X182653Y193209D02*
X189347D01*
Y206791D01*
X182653Y193209D02*
Y206791D01*
X186000Y198031D02*
Y201969D01*
X184031Y200000D02*
X187969D01*
X182653Y226791D02*
X189347D01*
X182653Y213209D02*
X189347D01*
Y226791D01*
X182653Y213209D02*
Y226791D01*
X186000Y218032D02*
Y221969D01*
X184031Y220000D02*
X187969D01*
X182653Y246791D02*
X189347D01*
X182653Y233209D02*
X189347D01*
Y246791D01*
X182653Y233209D02*
Y246791D01*
X186000Y238032D02*
Y241968D01*
X184031Y240000D02*
X187969D01*
X182653Y266791D02*
X189347D01*
X182653Y253209D02*
X189347D01*
Y266791D01*
X182653Y253209D02*
Y266791D01*
X186000Y258032D02*
Y261968D01*
X184031Y260000D02*
X187969D01*
X182653Y286791D02*
X189347D01*
X182653Y273209D02*
X189347D01*
Y286791D01*
X182653Y273209D02*
Y286791D01*
X186000Y278031D02*
Y281968D01*
X184031Y280000D02*
X187969D01*
X202654Y146791D02*
X209347D01*
X202654Y133209D02*
X209347D01*
Y146791D01*
X202654Y133209D02*
Y146791D01*
X206000Y138031D02*
Y141969D01*
X204031Y140000D02*
X207968D01*
X202654Y166791D02*
X209347D01*
X202654Y153209D02*
X209347D01*
Y166791D01*
X202654Y153209D02*
Y166791D01*
X206000Y158031D02*
Y161969D01*
X204031Y160000D02*
X207968D01*
X202654Y186791D02*
X209347D01*
X202654Y173209D02*
X209347D01*
Y186791D01*
X202654Y173209D02*
Y186791D01*
X206000Y178032D02*
Y181968D01*
X204031Y180000D02*
X207968D01*
X202654Y206791D02*
X209347D01*
X202654Y193209D02*
X209347D01*
Y206791D01*
X202654Y193209D02*
Y206791D01*
X206000Y198031D02*
Y201969D01*
X204031Y200000D02*
X207968D01*
X202654Y226791D02*
X209347D01*
X202654Y213209D02*
X209347D01*
Y226791D01*
X202654Y213209D02*
Y226791D01*
X206000Y218032D02*
Y221969D01*
X204031Y220000D02*
X207968D01*
X202654Y246791D02*
X209347D01*
X202654Y233209D02*
X209347D01*
Y246791D01*
X202654Y233209D02*
Y246791D01*
X206000Y238032D02*
Y241968D01*
X204031Y240000D02*
X207968D01*
X202654Y266791D02*
X209347D01*
X202654Y253209D02*
X209347D01*
Y266791D01*
X202654Y253209D02*
Y266791D01*
X206000Y258032D02*
Y261968D01*
X204031Y260000D02*
X207968D01*
X202654Y286791D02*
X209347D01*
X202654Y273209D02*
X209347D01*
Y286791D01*
X202654Y273209D02*
Y286791D01*
X206000Y278031D02*
Y281968D01*
X204031Y280000D02*
X207968D01*
X222654Y146791D02*
X229346D01*
X222654Y133209D02*
X229346D01*
Y146791D01*
X222654Y133209D02*
Y146791D01*
X226000Y138031D02*
Y141969D01*
X224031Y140000D02*
X227969D01*
X222654Y166791D02*
X229346D01*
X222654Y153209D02*
X229346D01*
Y166791D01*
X222654Y153209D02*
Y166791D01*
X226000Y158031D02*
Y161969D01*
X224031Y160000D02*
X227969D01*
X222654Y186791D02*
X229346D01*
X222654Y173209D02*
X229346D01*
Y186791D01*
X222654Y173209D02*
Y186791D01*
X226000Y178032D02*
Y181968D01*
X224031Y180000D02*
X227969D01*
X222654Y206791D02*
X229346D01*
X222654Y193209D02*
X229346D01*
Y206791D01*
X222654Y193209D02*
Y206791D01*
X226000Y198031D02*
Y201969D01*
X224031Y200000D02*
X227969D01*
X222654Y226791D02*
X229346D01*
X222654Y213209D02*
X229346D01*
Y226791D01*
X222654Y213209D02*
Y226791D01*
X226000Y218032D02*
Y221969D01*
X224031Y220000D02*
X227969D01*
X222654Y246791D02*
X229346D01*
X222654Y233209D02*
X229346D01*
Y246791D01*
X222654Y233209D02*
Y246791D01*
X226000Y238032D02*
Y241968D01*
X224031Y240000D02*
X227969D01*
X222654Y266791D02*
X229346D01*
X222654Y253209D02*
X229346D01*
Y266791D01*
X222654Y253209D02*
Y266791D01*
X226000Y258032D02*
Y261968D01*
X224031Y260000D02*
X227969D01*
X222654Y286791D02*
X229346D01*
X222654Y273209D02*
X229346D01*
Y286791D01*
X222654Y273209D02*
Y286791D01*
X226000Y278031D02*
Y281968D01*
X224031Y280000D02*
X227969D01*
X242653Y146791D02*
X249346D01*
X242653Y133209D02*
X249346D01*
Y146791D01*
X242653Y133209D02*
Y146791D01*
X246000Y138031D02*
Y141969D01*
X244032Y140000D02*
X247969D01*
X242653Y166791D02*
X249346D01*
X242653Y153209D02*
X249346D01*
Y166791D01*
X242653Y153209D02*
Y166791D01*
X246000Y158031D02*
Y161969D01*
X244032Y160000D02*
X247969D01*
X242653Y186791D02*
X249346D01*
X242653Y173209D02*
X249346D01*
Y186791D01*
X242653Y173209D02*
Y186791D01*
X246000Y178032D02*
Y181968D01*
X244032Y180000D02*
X247969D01*
X242653Y206791D02*
X249346D01*
X242653Y193209D02*
X249346D01*
Y206791D01*
X242653Y193209D02*
Y206791D01*
X246000Y198031D02*
Y201969D01*
X244032Y200000D02*
X247969D01*
X242653Y226791D02*
X249346D01*
X242653Y213209D02*
X249346D01*
Y226791D01*
X242653Y213209D02*
Y226791D01*
X246000Y218032D02*
Y221969D01*
X244032Y220000D02*
X247969D01*
X242653Y246791D02*
X249346D01*
X242653Y233209D02*
X249346D01*
Y246791D01*
X242653Y233209D02*
Y246791D01*
X246000Y238032D02*
Y241968D01*
X244032Y240000D02*
X247969D01*
X242653Y266791D02*
X249346D01*
X242653Y253209D02*
X249346D01*
Y266791D01*
X242653Y253209D02*
Y266791D01*
X246000Y258032D02*
Y261968D01*
X244032Y260000D02*
X247969D01*
X242653Y286791D02*
X249346D01*
X242653Y273209D02*
X249346D01*
Y286791D01*
X242653Y273209D02*
Y286791D01*
X246000Y278031D02*
Y281968D01*
X244032Y280000D02*
X247969D01*
X262653Y146791D02*
X269346D01*
X262653Y133209D02*
X269346D01*
Y146791D01*
X262653Y133209D02*
Y146791D01*
X266000Y138031D02*
Y141969D01*
X264032Y140000D02*
X267969D01*
X262653Y166791D02*
X269346D01*
X262653Y153209D02*
X269346D01*
Y166791D01*
X262653Y153209D02*
Y166791D01*
X266000Y158031D02*
Y161969D01*
X264032Y160000D02*
X267969D01*
X262653Y186791D02*
X269346D01*
X262653Y173209D02*
X269346D01*
Y186791D01*
X262653Y173209D02*
Y186791D01*
X266000Y178032D02*
Y181968D01*
X264032Y180000D02*
X267969D01*
X262653Y206791D02*
X269346D01*
X262653Y193209D02*
X269346D01*
Y206791D01*
X262653Y193209D02*
Y206791D01*
X266000Y198031D02*
Y201969D01*
X264032Y200000D02*
X267969D01*
X262653Y226791D02*
X269346D01*
X262653Y213209D02*
X269346D01*
Y226791D01*
X262653Y213209D02*
Y226791D01*
X266000Y218032D02*
Y221969D01*
X264032Y220000D02*
X267969D01*
X262653Y246791D02*
X269346D01*
X262653Y233209D02*
X269346D01*
Y246791D01*
X262653Y233209D02*
Y246791D01*
X266000Y238032D02*
Y241968D01*
X264032Y240000D02*
X267969D01*
X262653Y266791D02*
X269346D01*
X262653Y253209D02*
X269346D01*
Y266791D01*
X262653Y253209D02*
Y266791D01*
X266000Y258032D02*
Y261968D01*
X264032Y260000D02*
X267969D01*
X262653Y286791D02*
X269346D01*
X262653Y273209D02*
X269346D01*
Y286791D01*
X262653Y273209D02*
Y286791D01*
X266000Y278031D02*
Y281968D01*
X264032Y280000D02*
X267969D01*
X282653Y146791D02*
X289347D01*
X282653Y133209D02*
X289347D01*
Y146791D01*
X282653Y133209D02*
Y146791D01*
X286000Y138031D02*
Y141969D01*
X284032Y140000D02*
X287968D01*
X282653Y166791D02*
X289347D01*
X282653Y153209D02*
X289347D01*
Y166791D01*
X282653Y153209D02*
Y166791D01*
X286000Y158031D02*
Y161969D01*
X284032Y160000D02*
X287968D01*
X282653Y186791D02*
X289347D01*
X282653Y173209D02*
X289347D01*
Y186791D01*
X282653Y173209D02*
Y186791D01*
X286000Y178032D02*
Y181968D01*
X284032Y180000D02*
X287968D01*
X282653Y206791D02*
X289347D01*
X282653Y193209D02*
X289347D01*
Y206791D01*
X282653Y193209D02*
Y206791D01*
X286000Y198031D02*
Y201969D01*
X284032Y200000D02*
X287968D01*
X282653Y226791D02*
X289347D01*
X282653Y213209D02*
X289347D01*
Y226791D01*
X282653Y213209D02*
Y226791D01*
X286000Y218032D02*
Y221969D01*
X284032Y220000D02*
X287968D01*
X282653Y246791D02*
X289347D01*
X282653Y233209D02*
X289347D01*
Y246791D01*
X282653Y233209D02*
Y246791D01*
X286000Y238032D02*
Y241968D01*
X284032Y240000D02*
X287968D01*
X282653Y266791D02*
X289347D01*
X282653Y253209D02*
X289347D01*
Y266791D01*
X282653Y253209D02*
Y266791D01*
X286000Y258032D02*
Y261968D01*
X284032Y260000D02*
X287968D01*
X282653Y286791D02*
X289347D01*
X282653Y273209D02*
X289347D01*
Y286791D01*
X282653Y273209D02*
Y286791D01*
X286000Y278031D02*
Y281968D01*
X284032Y280000D02*
X287968D01*
X302654Y146791D02*
X309347D01*
X302654Y133209D02*
X309347D01*
Y146791D01*
X302654Y133209D02*
Y146791D01*
X306000Y138031D02*
Y141969D01*
X304031Y140000D02*
X307968D01*
X302654Y166791D02*
X309347D01*
X302654Y153209D02*
X309347D01*
Y166791D01*
X302654Y153209D02*
Y166791D01*
X306000Y158031D02*
Y161969D01*
X304031Y160000D02*
X307968D01*
X302654Y186791D02*
X309347D01*
X302654Y173209D02*
X309347D01*
Y186791D01*
X302654Y173209D02*
Y186791D01*
X306000Y178032D02*
Y181968D01*
X304031Y180000D02*
X307968D01*
X302654Y206791D02*
X309347D01*
X302654Y193209D02*
X309347D01*
Y206791D01*
X302654Y193209D02*
Y206791D01*
X306000Y198031D02*
Y201969D01*
X304031Y200000D02*
X307968D01*
X302654Y226791D02*
X309347D01*
X302654Y213209D02*
X309347D01*
Y226791D01*
X302654Y213209D02*
Y226791D01*
X306000Y218032D02*
Y221969D01*
X304031Y220000D02*
X307968D01*
X302654Y246791D02*
X309347D01*
X302654Y233209D02*
X309347D01*
Y246791D01*
X302654Y233209D02*
Y246791D01*
X306000Y238032D02*
Y241968D01*
X304031Y240000D02*
X307968D01*
X302654Y266791D02*
X309347D01*
X302654Y253209D02*
X309347D01*
Y266791D01*
X302654Y253209D02*
Y266791D01*
X306000Y258032D02*
Y261968D01*
X304031Y260000D02*
X307968D01*
X302654Y286791D02*
X309347D01*
X302654Y273209D02*
X309347D01*
Y286791D01*
X302654Y273209D02*
Y286791D01*
X306000Y278031D02*
Y281968D01*
X304031Y280000D02*
X307968D01*
X322654Y146791D02*
X329346D01*
X322654Y133209D02*
X329346D01*
Y146791D01*
X322654Y133209D02*
Y146791D01*
X326000Y138031D02*
Y141969D01*
X324031Y140000D02*
X327969D01*
X322654Y166791D02*
X329346D01*
X322654Y153209D02*
X329346D01*
Y166791D01*
X322654Y153209D02*
Y166791D01*
X326000Y158031D02*
Y161969D01*
X324031Y160000D02*
X327969D01*
X322654Y186791D02*
X329346D01*
X322654Y173209D02*
X329346D01*
Y186791D01*
X322654Y173209D02*
Y186791D01*
X326000Y178032D02*
Y181968D01*
X324031Y180000D02*
X327969D01*
X322654Y206791D02*
X329346D01*
X322654Y193209D02*
X329346D01*
Y206791D01*
X322654Y193209D02*
Y206791D01*
X326000Y198031D02*
Y201969D01*
X324031Y200000D02*
X327969D01*
X322654Y226791D02*
X329346D01*
X322654Y213209D02*
X329346D01*
Y226791D01*
X322654Y213209D02*
Y226791D01*
X326000Y218032D02*
Y221969D01*
X324031Y220000D02*
X327969D01*
X322654Y246791D02*
X329346D01*
X322654Y233209D02*
X329346D01*
Y246791D01*
X322654Y233209D02*
Y246791D01*
X326000Y238032D02*
Y241968D01*
X324031Y240000D02*
X327969D01*
X322654Y266791D02*
X329346D01*
X322654Y253209D02*
X329346D01*
Y266791D01*
X322654Y253209D02*
Y266791D01*
X326000Y258032D02*
Y261968D01*
X324031Y260000D02*
X327969D01*
X322654Y286791D02*
X329346D01*
X322654Y273209D02*
X329346D01*
Y286791D01*
X322654Y273209D02*
Y286791D01*
X326000Y278031D02*
Y281968D01*
X324031Y280000D02*
X327969D01*
X470653Y146791D02*
X477347D01*
X470653Y133209D02*
X477347D01*
Y146791D01*
X470653Y133209D02*
Y146791D01*
X474000Y138031D02*
Y141969D01*
X472031Y140000D02*
X475969D01*
X470653Y166791D02*
X477347D01*
X470653Y153209D02*
X477347D01*
Y166791D01*
X470653Y153209D02*
Y166791D01*
X474000Y158031D02*
Y161969D01*
X472031Y160000D02*
X475969D01*
X470653Y186791D02*
X477347D01*
X470653Y173209D02*
X477347D01*
Y186791D01*
X470653Y173209D02*
Y186791D01*
X474000Y178032D02*
Y181968D01*
X472031Y180000D02*
X475969D01*
X470653Y206791D02*
X477347D01*
X470653Y193209D02*
X477347D01*
Y206791D01*
X470653Y193209D02*
Y206791D01*
X474000Y198031D02*
Y201969D01*
X472031Y200000D02*
X475969D01*
X470653Y226791D02*
X477347D01*
X470653Y213209D02*
X477347D01*
Y226791D01*
X470653Y213209D02*
Y226791D01*
X474000Y218032D02*
Y221969D01*
X472031Y220000D02*
X475969D01*
X470653Y246791D02*
X477347D01*
X470653Y233209D02*
X477347D01*
Y246791D01*
X470653Y233209D02*
Y246791D01*
X474000Y238032D02*
Y241968D01*
X472031Y240000D02*
X475969D01*
X470653Y266791D02*
X477347D01*
X470653Y253209D02*
X477347D01*
Y266791D01*
X470653Y253209D02*
Y266791D01*
X474000Y258032D02*
Y261968D01*
X472031Y260000D02*
X475969D01*
X470653Y286791D02*
X477347D01*
X470653Y273209D02*
X477347D01*
Y286791D01*
X470653Y273209D02*
Y286791D01*
X474000Y278031D02*
Y281968D01*
X472031Y280000D02*
X475969D01*
X490654Y146791D02*
X497346D01*
X490654Y133209D02*
X497346D01*
Y146791D01*
X490654Y133209D02*
Y146791D01*
X494000Y138031D02*
Y141969D01*
X492031Y140000D02*
X495968D01*
X490654Y166791D02*
X497346D01*
X490654Y153209D02*
X497346D01*
Y166791D01*
X490654Y153209D02*
Y166791D01*
X494000Y158031D02*
Y161969D01*
X492031Y160000D02*
X495968D01*
X490654Y186791D02*
X497346D01*
X490654Y173209D02*
X497346D01*
Y186791D01*
X490654Y173209D02*
Y186791D01*
X494000Y178032D02*
Y181968D01*
X492031Y180000D02*
X495968D01*
X490654Y206791D02*
X497346D01*
X490654Y193209D02*
X497346D01*
Y206791D01*
X490654Y193209D02*
Y206791D01*
X494000Y198031D02*
Y201969D01*
X492031Y200000D02*
X495968D01*
X490654Y226791D02*
X497346D01*
X490654Y213209D02*
X497346D01*
Y226791D01*
X490654Y213209D02*
Y226791D01*
X494000Y218032D02*
Y221969D01*
X492031Y220000D02*
X495968D01*
X490654Y246791D02*
X497346D01*
X490654Y233209D02*
X497346D01*
Y246791D01*
X490654Y233209D02*
Y246791D01*
X494000Y238032D02*
Y241968D01*
X492031Y240000D02*
X495968D01*
X490654Y266791D02*
X497346D01*
X490654Y253209D02*
X497346D01*
Y266791D01*
X490654Y253209D02*
Y266791D01*
X494000Y258032D02*
Y261968D01*
X492031Y260000D02*
X495968D01*
X490654Y286791D02*
X497346D01*
X490654Y273209D02*
X497346D01*
Y286791D01*
X490654Y273209D02*
Y286791D01*
X494000Y278031D02*
Y281968D01*
X492031Y280000D02*
X495968D01*
X510653Y146791D02*
X517346D01*
X510653Y133209D02*
X517346D01*
Y146791D01*
X510653Y133209D02*
Y146791D01*
X514000Y138031D02*
Y141969D01*
X512032Y140000D02*
X515969D01*
X510653Y166791D02*
X517346D01*
X510653Y153209D02*
X517346D01*
Y166791D01*
X510653Y153209D02*
Y166791D01*
X514000Y158031D02*
Y161969D01*
X512032Y160000D02*
X515969D01*
X510653Y186791D02*
X517346D01*
X510653Y173209D02*
X517346D01*
Y186791D01*
X510653Y173209D02*
Y186791D01*
X514000Y178032D02*
Y181968D01*
X512032Y180000D02*
X515969D01*
X510653Y206791D02*
X517346D01*
X510653Y193209D02*
X517346D01*
Y206791D01*
X510653Y193209D02*
Y206791D01*
X514000Y198031D02*
Y201969D01*
X512032Y200000D02*
X515969D01*
X510653Y226791D02*
X517346D01*
X510653Y213209D02*
X517346D01*
Y226791D01*
X510653Y213209D02*
Y226791D01*
X514000Y218032D02*
Y221969D01*
X512032Y220000D02*
X515969D01*
X510653Y246791D02*
X517346D01*
X510653Y233209D02*
X517346D01*
Y246791D01*
X510653Y233209D02*
Y246791D01*
X514000Y238032D02*
Y241968D01*
X512032Y240000D02*
X515969D01*
X510653Y266791D02*
X517346D01*
X510653Y253209D02*
X517346D01*
Y266791D01*
X510653Y253209D02*
Y266791D01*
X514000Y258032D02*
Y261968D01*
X512032Y260000D02*
X515969D01*
X510653Y286791D02*
X517346D01*
X510653Y273209D02*
X517346D01*
Y286791D01*
X510653Y273209D02*
Y286791D01*
X514000Y278031D02*
Y281968D01*
X512032Y280000D02*
X515969D01*
X530653Y146791D02*
X537347D01*
X530653Y133209D02*
X537347D01*
Y146791D01*
X530653Y133209D02*
Y146791D01*
X534000Y138031D02*
Y141969D01*
X532031Y140000D02*
X535968D01*
X530653Y166791D02*
X537347D01*
X530653Y153209D02*
X537347D01*
Y166791D01*
X530653Y153209D02*
Y166791D01*
X534000Y158031D02*
Y161969D01*
X532031Y160000D02*
X535968D01*
X530653Y186791D02*
X537347D01*
X530653Y173209D02*
X537347D01*
Y186791D01*
X530653Y173209D02*
Y186791D01*
X534000Y178032D02*
Y181968D01*
X532031Y180000D02*
X535968D01*
X530653Y206791D02*
X537347D01*
X530653Y193209D02*
X537347D01*
Y206791D01*
X530653Y193209D02*
Y206791D01*
X534000Y198031D02*
Y201969D01*
X532031Y200000D02*
X535968D01*
X530653Y226791D02*
X537347D01*
X530653Y213209D02*
X537347D01*
Y226791D01*
X530653Y213209D02*
Y226791D01*
X534000Y218032D02*
Y221969D01*
X532031Y220000D02*
X535968D01*
X530653Y246791D02*
X537347D01*
X530653Y233209D02*
X537347D01*
Y246791D01*
X530653Y233209D02*
Y246791D01*
X534000Y238032D02*
Y241968D01*
X532031Y240000D02*
X535968D01*
X530653Y266791D02*
X537347D01*
X530653Y253209D02*
X537347D01*
Y266791D01*
X530653Y253209D02*
Y266791D01*
X534000Y258032D02*
Y261968D01*
X532031Y260000D02*
X535968D01*
X530653Y286791D02*
X537347D01*
X530653Y273209D02*
X537347D01*
Y286791D01*
X530653Y273209D02*
Y286791D01*
X534000Y278031D02*
Y281968D01*
X532031Y280000D02*
X535968D01*
X550654Y146791D02*
X557346D01*
X550654Y133209D02*
X557346D01*
Y146791D01*
X550654Y133209D02*
Y146791D01*
X554000Y138031D02*
Y141969D01*
X552032Y140000D02*
X555969D01*
X550654Y166791D02*
X557346D01*
X550654Y153209D02*
X557346D01*
Y166791D01*
X550654Y153209D02*
Y166791D01*
X554000Y158031D02*
Y161969D01*
X552032Y160000D02*
X555969D01*
X550654Y186791D02*
X557346D01*
X550654Y173209D02*
X557346D01*
Y186791D01*
X550654Y173209D02*
Y186791D01*
X554000Y178032D02*
Y181968D01*
X552032Y180000D02*
X555969D01*
X550654Y206791D02*
X557346D01*
X550654Y193209D02*
X557346D01*
Y206791D01*
X550654Y193209D02*
Y206791D01*
X554000Y198031D02*
Y201969D01*
X552032Y200000D02*
X555969D01*
X550654Y226791D02*
X557346D01*
X550654Y213209D02*
X557346D01*
Y226791D01*
X550654Y213209D02*
Y226791D01*
X554000Y218032D02*
Y221969D01*
X552032Y220000D02*
X555969D01*
X550654Y246791D02*
X557346D01*
X550654Y233209D02*
X557346D01*
Y246791D01*
X550654Y233209D02*
Y246791D01*
X554000Y238032D02*
Y241968D01*
X552032Y240000D02*
X555969D01*
X550654Y266791D02*
X557346D01*
X550654Y253209D02*
X557346D01*
Y266791D01*
X550654Y253209D02*
Y266791D01*
X554000Y258032D02*
Y261968D01*
X552032Y260000D02*
X555969D01*
X550654Y286791D02*
X557346D01*
X550654Y273209D02*
X557346D01*
Y286791D01*
X550654Y273209D02*
Y286791D01*
X554000Y278031D02*
Y281968D01*
X552032Y280000D02*
X555969D01*
X570653Y146791D02*
X577347D01*
X570653Y133209D02*
X577347D01*
Y146791D01*
X570653Y133209D02*
Y146791D01*
X574000Y138031D02*
Y141969D01*
X572031Y140000D02*
X575969D01*
X570653Y166791D02*
X577347D01*
X570653Y153209D02*
X577347D01*
Y166791D01*
X570653Y153209D02*
Y166791D01*
X574000Y158031D02*
Y161969D01*
X572031Y160000D02*
X575969D01*
X570653Y186791D02*
X577347D01*
X570653Y173209D02*
X577347D01*
Y186791D01*
X570653Y173209D02*
Y186791D01*
X574000Y178032D02*
Y181968D01*
X572031Y180000D02*
X575969D01*
X570653Y206791D02*
X577347D01*
X570653Y193209D02*
X577347D01*
Y206791D01*
X570653Y193209D02*
Y206791D01*
X574000Y198031D02*
Y201969D01*
X572031Y200000D02*
X575969D01*
X570653Y226791D02*
X577347D01*
X570653Y213209D02*
X577347D01*
Y226791D01*
X570653Y213209D02*
Y226791D01*
X574000Y218032D02*
Y221969D01*
X572031Y220000D02*
X575969D01*
X570653Y246791D02*
X577347D01*
X570653Y233209D02*
X577347D01*
Y246791D01*
X570653Y233209D02*
Y246791D01*
X574000Y238032D02*
Y241968D01*
X572031Y240000D02*
X575969D01*
X570653Y266791D02*
X577347D01*
X570653Y253209D02*
X577347D01*
Y266791D01*
X570653Y253209D02*
Y266791D01*
X574000Y258032D02*
Y261968D01*
X572031Y260000D02*
X575969D01*
X570653Y286791D02*
X577347D01*
X570653Y273209D02*
X577347D01*
Y286791D01*
X570653Y273209D02*
Y286791D01*
X574000Y278031D02*
Y281968D01*
X572031Y280000D02*
X575969D01*
X590654Y146791D02*
X597346D01*
X590654Y133209D02*
X597346D01*
Y146791D01*
X590654Y133209D02*
Y146791D01*
X594000Y138031D02*
Y141969D01*
X592031Y140000D02*
X595968D01*
X590654Y166791D02*
X597346D01*
X590654Y153209D02*
X597346D01*
Y166791D01*
X590654Y153209D02*
Y166791D01*
X594000Y158031D02*
Y161969D01*
X592031Y160000D02*
X595968D01*
X590654Y186791D02*
X597346D01*
X590654Y173209D02*
X597346D01*
Y186791D01*
X590654Y173209D02*
Y186791D01*
X594000Y178032D02*
Y181968D01*
X592031Y180000D02*
X595968D01*
X590654Y206791D02*
X597346D01*
X590654Y193209D02*
X597346D01*
Y206791D01*
X590654Y193209D02*
Y206791D01*
X594000Y198031D02*
Y201969D01*
X592031Y200000D02*
X595968D01*
X590654Y226791D02*
X597346D01*
X590654Y213209D02*
X597346D01*
Y226791D01*
X590654Y213209D02*
Y226791D01*
X594000Y218032D02*
Y221969D01*
X592031Y220000D02*
X595968D01*
X590654Y246791D02*
X597346D01*
X590654Y233209D02*
X597346D01*
Y246791D01*
X590654Y233209D02*
Y246791D01*
X594000Y238032D02*
Y241968D01*
X592031Y240000D02*
X595968D01*
X590654Y266791D02*
X597346D01*
X590654Y253209D02*
X597346D01*
Y266791D01*
X590654Y253209D02*
Y266791D01*
X594000Y258032D02*
Y261968D01*
X592031Y260000D02*
X595968D01*
X590654Y286791D02*
X597346D01*
X590654Y273209D02*
X597346D01*
Y286791D01*
X590654Y273209D02*
Y286791D01*
X594000Y278031D02*
Y281968D01*
X592031Y280000D02*
X595968D01*
X610653Y146791D02*
X617346D01*
X610653Y133209D02*
X617346D01*
Y146791D01*
X610653Y133209D02*
Y146791D01*
X614000Y138031D02*
Y141969D01*
X612032Y140000D02*
X615969D01*
X610653Y166791D02*
X617346D01*
X610653Y153209D02*
X617346D01*
Y166791D01*
X610653Y153209D02*
Y166791D01*
X614000Y158031D02*
Y161969D01*
X612032Y160000D02*
X615969D01*
X610653Y186791D02*
X617346D01*
X610653Y173209D02*
X617346D01*
Y186791D01*
X610653Y173209D02*
Y186791D01*
X614000Y178032D02*
Y181968D01*
X612032Y180000D02*
X615969D01*
X610653Y206791D02*
X617346D01*
X610653Y193209D02*
X617346D01*
Y206791D01*
X610653Y193209D02*
Y206791D01*
X614000Y198031D02*
Y201969D01*
X612032Y200000D02*
X615969D01*
X610653Y226791D02*
X617346D01*
X610653Y213209D02*
X617346D01*
Y226791D01*
X610653Y213209D02*
Y226791D01*
X614000Y218032D02*
Y221969D01*
X612032Y220000D02*
X615969D01*
X610653Y246791D02*
X617346D01*
X610653Y233209D02*
X617346D01*
Y246791D01*
X610653Y233209D02*
Y246791D01*
X614000Y238032D02*
Y241968D01*
X612032Y240000D02*
X615969D01*
X610653Y266791D02*
X617346D01*
X610653Y253209D02*
X617346D01*
Y266791D01*
X610653Y253209D02*
Y266791D01*
X614000Y258032D02*
Y261968D01*
X612032Y260000D02*
X615969D01*
X610653Y286791D02*
X617346D01*
X610653Y273209D02*
X617346D01*
Y286791D01*
X610653Y273209D02*
Y286791D01*
X614000Y278031D02*
Y281968D01*
X612032Y280000D02*
X615969D01*
X345500Y238531D02*
Y242469D01*
X343531Y240500D02*
X347468D01*
X336839Y235579D02*
X354161D01*
X336839Y245421D02*
X354161D01*
Y235579D02*
Y245421D01*
X336839Y235579D02*
Y245421D01*
X210000Y253031D02*
Y256968D01*
X208032Y255000D02*
X211968D01*
X201339Y250079D02*
X218661D01*
X201339Y259921D02*
X218661D01*
X201339Y250079D02*
Y259921D01*
X218661Y250079D02*
Y259921D01*
X210000Y228031D02*
Y231968D01*
X208032Y230000D02*
X211968D01*
X191299Y251063D02*
X228701D01*
X191299Y208937D02*
X228701D01*
Y251063D01*
X191299Y208937D02*
Y251063D01*
X506791Y271153D02*
Y277847D01*
X493209Y271153D02*
Y277847D01*
X506791D01*
X493209Y271153D02*
X506791D01*
X498032Y274500D02*
X501968D01*
X500000Y272532D02*
Y276468D01*
X506791Y281153D02*
Y287846D01*
X493209Y281153D02*
Y287846D01*
X506791D01*
X493209Y281153D02*
X506791D01*
X498032Y284500D02*
X501968D01*
X500000Y282531D02*
Y286469D01*
X355132Y281500D02*
X359068D01*
X357100Y279532D02*
Y283469D01*
X360840Y274610D02*
Y288390D01*
X353360Y274610D02*
Y288390D01*
Y274610D02*
X360840D01*
X353360Y288390D02*
X360840D01*
X346532Y281500D02*
X350468D01*
X348500Y279532D02*
Y283469D01*
X352240Y274610D02*
Y288390D01*
X344760Y274610D02*
Y288390D01*
Y274610D02*
X352240D01*
X344760Y288390D02*
X352240D01*
X334531Y281500D02*
X338469D01*
X336500Y279532D02*
Y283469D01*
X340240Y274610D02*
Y288390D01*
X332760Y274610D02*
Y288390D01*
Y274610D02*
X340240D01*
X332760Y288390D02*
X340240Y288390D01*
X327031Y281500D02*
X330968D01*
X329000Y279532D02*
Y283469D01*
X325260Y274610D02*
Y288390D01*
X332740Y274610D02*
Y288390D01*
X325260D02*
X332740D01*
X325260Y274610D02*
X332740Y274610D01*
X375031Y147604D02*
X378969D01*
X377000Y145635D02*
Y149572D01*
X380740Y140714D02*
X380740Y154494D01*
X373260Y140714D02*
Y154494D01*
Y140714D02*
X380740Y140714D01*
X373260Y154494D02*
X380740Y154494D01*
X367531Y154604D02*
X371468D01*
X369500Y152635D02*
Y156572D01*
X373240Y147714D02*
Y161494D01*
X365760Y147714D02*
Y161494D01*
Y147714D02*
X373240Y147714D01*
X365760Y161494D02*
X373240Y161494D01*
X375031Y161604D02*
X378969D01*
X377000Y163572D02*
X377000Y159635D01*
X380740Y168494D02*
X380740Y154714D01*
X373260Y154714D02*
Y168494D01*
Y154714D02*
X380740Y154714D01*
X373260Y168494D02*
X380740Y168494D01*
X367531Y168604D02*
X371468D01*
X369500Y166635D02*
Y170572D01*
X373240Y161714D02*
Y175494D01*
X365760Y161714D02*
Y175494D01*
Y161714D02*
X373240D01*
X365760Y175494D02*
X373240Y175494D01*
X375031Y175604D02*
X378969D01*
X377000Y173635D02*
Y177572D01*
X380740Y168714D02*
X380740Y182494D01*
X373260Y168714D02*
Y182494D01*
Y168714D02*
X380740Y168714D01*
X373260Y182494D02*
X380740Y182494D01*
X367531Y182604D02*
X371468Y182604D01*
X369500Y180635D02*
Y184572D01*
X365760Y175714D02*
Y189494D01*
X373240Y175714D02*
Y189494D01*
X365760D02*
X373240D01*
X365760Y175714D02*
X373240Y175714D01*
X375031Y189604D02*
X378969D01*
X377000Y191572D02*
X377000Y187635D01*
X380740Y196494D02*
X380740Y182714D01*
X373260Y182714D02*
Y196494D01*
Y182714D02*
X380740Y182714D01*
X373260Y196494D02*
X380740Y196494D01*
X421032Y284500D02*
X424968D01*
X423000Y282531D02*
Y286469D01*
X418079Y275839D02*
Y293161D01*
X427921Y275839D02*
Y293161D01*
X418079Y275839D02*
X427921D01*
X418079Y293161D02*
X427921D01*
X478709Y281153D02*
Y287846D01*
X492291Y281153D02*
Y287846D01*
X478709Y281153D02*
X492291D01*
X478709Y287846D02*
X492291D01*
X483532Y284500D02*
X487468D01*
X485500Y282531D02*
Y286469D01*
X471500Y282531D02*
Y286469D01*
X469531Y284500D02*
X473468D01*
X464610Y288240D02*
X478390D01*
X464610Y280760D02*
X478390D01*
Y288240D01*
X464610Y280760D02*
X464610Y288240D01*
M02*
