G04*
G04 #@! TF.GenerationSoftware,Altium Limited,Altium Designer,18.1.9 (240)*
G04*
G04 Layer_Color=65535*
%FSLAX25Y25*%
%MOIN*%
G70*
G01*
G75*
%ADD10C,0.01000*%
%ADD11C,0.00984*%
%ADD12C,0.00787*%
D10*
X338500Y249500D02*
X339000Y250000D01*
X338000D02*
X338500Y249500D01*
Y250500D02*
X338000Y250000D01*
X339000D02*
X338500Y250500D01*
X389000Y286181D02*
Y298181D01*
X416000D01*
Y286181D02*
Y298181D01*
X389000Y286181D02*
X391000D01*
X414000D02*
X416000D01*
X436362Y150707D02*
Y152121D01*
X434948Y153534D01*
X433534D01*
X432828Y152828D01*
Y151414D01*
X434241Y150000D01*
Y148586D01*
X433534Y147879D01*
X432121D01*
X430707Y149293D01*
Y150707D01*
X438483Y150000D02*
X434241Y145759D01*
X437069D01*
Y142931D01*
X441310Y147172D01*
X445551Y142931D02*
X443431Y143638D01*
X440603D01*
X439189Y142224D01*
Y140811D01*
X440603Y139397D01*
X442017D01*
X442724Y140104D01*
Y141517D01*
X440603Y143638D01*
X406362Y150707D02*
Y152121D01*
X404948Y153534D01*
X403534D01*
X402828Y152828D01*
Y151414D01*
X404241Y150000D01*
Y148586D01*
X403534Y147879D01*
X402121D01*
X400707Y149293D01*
Y150707D01*
X408483Y150000D02*
X404241Y145759D01*
X407069D01*
Y142931D01*
X411310Y147172D01*
X415551Y142931D02*
X412724Y145759D01*
X410603Y143638D01*
X412724Y142931D01*
X413431Y142224D01*
Y140811D01*
X412017Y139397D01*
X410603D01*
X409189Y140811D01*
Y142224D01*
X376362Y150707D02*
Y152121D01*
X374948Y153534D01*
X373534D01*
X372828Y152828D01*
Y151414D01*
X374241Y150000D01*
Y148586D01*
X373534Y147879D01*
X372121D01*
X370707Y149293D01*
Y150707D01*
X378483Y150000D02*
X374241Y145759D01*
X377069D01*
Y142931D01*
X381310Y147172D01*
X380603Y139397D02*
X384844Y143638D01*
X380603D01*
X383431Y140811D01*
X393999Y209998D02*
X392999Y210998D01*
X391000D01*
X390000Y209998D01*
Y208999D01*
X391000Y207999D01*
X392999D01*
X393999Y206999D01*
Y206000D01*
X392999Y205000D01*
X391000D01*
X390000Y206000D01*
X395998Y210998D02*
Y205000D01*
X397997Y206999D01*
X399997Y205000D01*
Y210998D01*
X401996Y209998D02*
X402996Y210998D01*
X404995D01*
X405995Y209998D01*
Y208999D01*
X404995Y207999D01*
X403996D01*
X404995D01*
X405995Y206999D01*
Y206000D01*
X404995Y205000D01*
X402996D01*
X401996Y206000D01*
X441499Y129998D02*
X440499Y130998D01*
X438500D01*
X437500Y129998D01*
Y128999D01*
X438500Y127999D01*
X440499D01*
X441499Y126999D01*
Y126000D01*
X440499Y125000D01*
X438500D01*
X437500Y126000D01*
X443498Y130998D02*
Y125000D01*
X445497Y126999D01*
X447497Y125000D01*
Y130998D01*
X453495Y125000D02*
X449496D01*
X453495Y128999D01*
Y129998D01*
X452495Y130998D01*
X450496D01*
X449496Y129998D01*
X351499D02*
X350499Y130998D01*
X348500D01*
X347500Y129998D01*
Y128999D01*
X348500Y127999D01*
X350499D01*
X351499Y126999D01*
Y126000D01*
X350499Y125000D01*
X348500D01*
X347500Y126000D01*
X353498Y130998D02*
Y125000D01*
X355497Y126999D01*
X357497Y125000D01*
Y130998D01*
X359496Y125000D02*
X361495D01*
X360496D01*
Y130998D01*
X359496Y129998D01*
X388000Y280998D02*
X389999D01*
X389000D01*
Y275000D01*
X388000D01*
X389999D01*
X392998D02*
Y280998D01*
X395997D01*
X396997Y279998D01*
Y277999D01*
X395997Y276999D01*
X392998D01*
X394998D02*
X396997Y275000D01*
X398996D02*
X400996D01*
X399996D01*
Y280998D01*
X398996Y279998D01*
X429000Y285000D02*
Y290998D01*
X431999D01*
X432999Y289998D01*
Y287999D01*
X431999Y286999D01*
X429000D01*
X430999D02*
X432999Y285000D01*
X434998Y290998D02*
X438997D01*
Y289998D01*
X434998Y286000D01*
Y285000D01*
X261600Y320900D02*
Y326898D01*
X264599D01*
X265599Y325898D01*
Y323899D01*
X264599Y322899D01*
X261600D01*
X267598Y320900D02*
X269597D01*
X268598D01*
Y326898D01*
X267598Y325898D01*
X448000Y192500D02*
X442002D01*
Y195499D01*
X443002Y196499D01*
X445001D01*
X446001Y195499D01*
Y192500D01*
X448000Y202497D02*
Y198498D01*
X444001Y202497D01*
X443002D01*
X442002Y201497D01*
Y199498D01*
X443002Y198498D01*
D11*
X263492Y237992D02*
X262754Y238418D01*
Y237566D01*
X263492Y237992D01*
X551492D02*
X550754Y238418D01*
Y237566D01*
X551492Y237992D01*
D12*
X250095Y229902D02*
X250095Y230098D01*
X261906Y229902D02*
Y230098D01*
X250095D02*
X261906D01*
X250095Y229902D02*
X261906D01*
X538095D02*
Y230098D01*
X549905Y229902D02*
Y230098D01*
X538095D02*
X549905D01*
X538095Y229902D02*
X549905D01*
X187969Y139409D02*
Y140591D01*
X184031Y139409D02*
Y140591D01*
X187969D01*
Y159409D02*
Y160591D01*
X184031Y159409D02*
Y160591D01*
X187969D01*
Y179409D02*
Y180591D01*
X184031Y179409D02*
Y180591D01*
X187969D01*
Y199409D02*
Y200591D01*
X184031Y199409D02*
Y200591D01*
X187969D01*
Y219409D02*
Y220590D01*
X184031Y219409D02*
Y220590D01*
X187969D01*
Y239409D02*
Y240591D01*
X184031Y239409D02*
Y240591D01*
X187969D01*
Y259409D02*
Y260591D01*
X184031Y259409D02*
Y260591D01*
X187969D01*
Y279410D02*
Y280591D01*
X184031Y279410D02*
Y280591D01*
X187969D01*
X207968Y139409D02*
Y140591D01*
X204031Y139409D02*
Y140591D01*
X207968D01*
Y159409D02*
Y160591D01*
X204031Y159409D02*
Y160591D01*
X207968D01*
Y179409D02*
Y180591D01*
X204031Y179409D02*
Y180591D01*
X207968D01*
Y199409D02*
Y200591D01*
X204031Y199409D02*
Y200591D01*
X207968D01*
Y219409D02*
Y220590D01*
X204031Y219409D02*
Y220590D01*
X207968D01*
Y239409D02*
Y240591D01*
X204031Y239409D02*
Y240591D01*
X207968D01*
Y259409D02*
Y260591D01*
X204031Y259409D02*
Y260591D01*
X207968D01*
Y279410D02*
Y280591D01*
X204031Y279410D02*
Y280591D01*
X207968D01*
X227969Y139409D02*
Y140591D01*
X224031Y139409D02*
Y140591D01*
X227969D01*
Y159409D02*
Y160591D01*
X224031Y159409D02*
Y160591D01*
X227969D01*
Y179409D02*
Y180591D01*
X224031Y179409D02*
Y180591D01*
X227969D01*
Y199409D02*
Y200591D01*
X224031Y199409D02*
Y200591D01*
X227969D01*
Y219409D02*
Y220590D01*
X224031Y219409D02*
Y220590D01*
X227969D01*
Y239409D02*
Y240591D01*
X224031Y239409D02*
Y240591D01*
X227969D01*
Y259409D02*
Y260591D01*
X224031Y259409D02*
Y260591D01*
X227969D01*
Y279410D02*
Y280591D01*
X224031Y279410D02*
Y280591D01*
X227969D01*
X247969Y139409D02*
Y140591D01*
X244032Y139409D02*
Y140591D01*
X247969D01*
Y159409D02*
Y160591D01*
X244032Y159409D02*
Y160591D01*
X247969D01*
Y179409D02*
Y180591D01*
X244032Y179409D02*
Y180591D01*
X247969D01*
Y199409D02*
Y200591D01*
X244032Y199409D02*
Y200591D01*
X247969D01*
Y219409D02*
Y220590D01*
X244032Y219409D02*
Y220590D01*
X247969D01*
Y239409D02*
Y240591D01*
X244032Y239409D02*
Y240591D01*
X247969D01*
Y259409D02*
Y260591D01*
X244032Y259409D02*
Y260591D01*
X247969D01*
Y279410D02*
Y280591D01*
X244032Y279410D02*
Y280591D01*
X247969D01*
X267969Y139409D02*
Y140591D01*
X264032Y139409D02*
Y140591D01*
X267969D01*
Y159409D02*
Y160591D01*
X264032Y159409D02*
Y160591D01*
X267969D01*
Y179409D02*
Y180591D01*
X264032Y179409D02*
Y180591D01*
X267969D01*
Y199409D02*
Y200591D01*
X264032Y199409D02*
Y200591D01*
X267969D01*
Y219409D02*
Y220590D01*
X264032Y219409D02*
Y220590D01*
X267969D01*
Y239409D02*
Y240591D01*
X264032Y239409D02*
Y240591D01*
X267969D01*
Y259409D02*
Y260591D01*
X264032Y259409D02*
Y260591D01*
X267969D01*
Y279410D02*
Y280591D01*
X264032Y279410D02*
Y280591D01*
X267969D01*
X287968Y139409D02*
Y140591D01*
X284032Y139409D02*
Y140591D01*
X287968D01*
Y159409D02*
Y160591D01*
X284032Y159409D02*
Y160591D01*
X287968D01*
Y179409D02*
Y180591D01*
X284032Y179409D02*
Y180591D01*
X287968D01*
Y199409D02*
Y200591D01*
X284032Y199409D02*
Y200591D01*
X287968D01*
Y219409D02*
Y220590D01*
X284032Y219409D02*
Y220590D01*
X287968D01*
Y239409D02*
Y240591D01*
X284032Y239409D02*
Y240591D01*
X287968D01*
Y259409D02*
Y260591D01*
X284032Y259409D02*
Y260591D01*
X287968D01*
Y279410D02*
Y280591D01*
X284032Y279410D02*
Y280591D01*
X287968D01*
X307968Y139409D02*
Y140591D01*
X304031Y139409D02*
Y140591D01*
X307968D01*
Y159409D02*
Y160591D01*
X304031Y159409D02*
Y160591D01*
X307968D01*
Y179409D02*
Y180591D01*
X304031Y179409D02*
Y180591D01*
X307968D01*
Y199409D02*
Y200591D01*
X304031Y199409D02*
Y200591D01*
X307968D01*
Y219409D02*
Y220590D01*
X304031Y219409D02*
Y220590D01*
X307968D01*
Y239409D02*
Y240591D01*
X304031Y239409D02*
Y240591D01*
X307968D01*
Y259409D02*
Y260591D01*
X304031Y259409D02*
Y260591D01*
X307968D01*
Y279410D02*
Y280591D01*
X304031Y279410D02*
Y280591D01*
X307968D01*
X327969Y139409D02*
Y140591D01*
X324031Y139409D02*
Y140591D01*
X327969D01*
Y159409D02*
Y160591D01*
X324031Y159409D02*
Y160591D01*
X327969D01*
Y179409D02*
Y180591D01*
X324031Y179409D02*
Y180591D01*
X327969D01*
Y199409D02*
Y200591D01*
X324031Y199409D02*
Y200591D01*
X327969D01*
Y219409D02*
Y220590D01*
X324031Y219409D02*
Y220590D01*
X327969D01*
Y239409D02*
Y240591D01*
X324031Y239409D02*
Y240591D01*
X327969D01*
Y259409D02*
Y260591D01*
X324031Y259409D02*
Y260591D01*
X327969D01*
Y279410D02*
Y280591D01*
X324031Y279410D02*
Y280591D01*
X327969D01*
X475969Y139409D02*
Y140591D01*
X472031Y139409D02*
Y140591D01*
X475969D01*
Y159409D02*
Y160591D01*
X472031Y159409D02*
Y160591D01*
X475969D01*
Y179409D02*
Y180591D01*
X472031Y179409D02*
Y180591D01*
X475969D01*
Y199409D02*
Y200591D01*
X472031Y199409D02*
Y200591D01*
X475969D01*
Y219409D02*
Y220590D01*
X472031Y219409D02*
Y220590D01*
X475969D01*
Y239409D02*
Y240591D01*
X472031Y239409D02*
Y240591D01*
X475969D01*
Y259409D02*
Y260591D01*
X472031Y259409D02*
Y260591D01*
X475969D01*
Y279410D02*
Y280591D01*
X472031Y279410D02*
Y280591D01*
X475969D01*
X495968Y139409D02*
Y140591D01*
X492031Y139409D02*
Y140591D01*
X495968D01*
Y159409D02*
Y160591D01*
X492031Y159409D02*
Y160591D01*
X495968D01*
Y179409D02*
Y180591D01*
X492031Y179409D02*
Y180591D01*
X495968D01*
Y199409D02*
Y200591D01*
X492031Y199409D02*
Y200591D01*
X495968D01*
Y219409D02*
Y220590D01*
X492031Y219409D02*
Y220590D01*
X495968D01*
Y239409D02*
Y240591D01*
X492031Y239409D02*
Y240591D01*
X495968D01*
Y259409D02*
Y260591D01*
X492031Y259409D02*
Y260591D01*
X495968D01*
Y279410D02*
Y280591D01*
X492031Y279410D02*
Y280591D01*
X495968D01*
X515969Y139409D02*
Y140591D01*
X512032Y139409D02*
Y140591D01*
X515969D01*
Y159409D02*
Y160591D01*
X512032Y159409D02*
Y160591D01*
X515969D01*
Y179409D02*
Y180591D01*
X512032Y179409D02*
Y180591D01*
X515969D01*
Y199409D02*
Y200591D01*
X512032Y199409D02*
Y200591D01*
X515969D01*
Y219409D02*
Y220590D01*
X512032Y219409D02*
Y220590D01*
X515969D01*
Y239409D02*
Y240591D01*
X512032Y239409D02*
Y240591D01*
X515969D01*
Y259409D02*
Y260591D01*
X512032Y259409D02*
Y260591D01*
X515969D01*
Y279410D02*
Y280591D01*
X512032Y279410D02*
Y280591D01*
X515969D01*
X535968Y139409D02*
Y140591D01*
X532031Y139409D02*
Y140591D01*
X535968D01*
Y159409D02*
Y160591D01*
X532031Y159409D02*
Y160591D01*
X535968D01*
Y179409D02*
Y180591D01*
X532031Y179409D02*
Y180591D01*
X535968D01*
Y199409D02*
Y200591D01*
X532031Y199409D02*
Y200591D01*
X535968D01*
Y219409D02*
Y220590D01*
X532031Y219409D02*
Y220590D01*
X535968D01*
Y239409D02*
Y240591D01*
X532031Y239409D02*
Y240591D01*
X535968D01*
Y259409D02*
Y260591D01*
X532031Y259409D02*
Y260591D01*
X535968D01*
Y279410D02*
Y280591D01*
X532031Y279410D02*
Y280591D01*
X535968D01*
X555969Y139409D02*
Y140591D01*
X552032Y139409D02*
Y140591D01*
X555969D01*
Y159409D02*
Y160591D01*
X552032Y159409D02*
Y160591D01*
X555969D01*
Y179409D02*
Y180591D01*
X552032Y179409D02*
Y180591D01*
X555969D01*
Y199409D02*
Y200591D01*
X552032Y199409D02*
Y200591D01*
X555969D01*
Y219409D02*
Y220590D01*
X552032Y219409D02*
Y220590D01*
X555969D01*
Y239409D02*
Y240591D01*
X552032Y239409D02*
Y240591D01*
X555969D01*
Y259409D02*
Y260591D01*
X552032Y259409D02*
Y260591D01*
X555969D01*
Y279410D02*
Y280591D01*
X552032Y279410D02*
Y280591D01*
X555969D01*
X575969Y139409D02*
Y140591D01*
X572031Y139409D02*
Y140591D01*
X575969D01*
Y159409D02*
Y160591D01*
X572031Y159409D02*
Y160591D01*
X575969D01*
Y179409D02*
Y180591D01*
X572031Y179409D02*
Y180591D01*
X575969D01*
Y199409D02*
Y200591D01*
X572031Y199409D02*
Y200591D01*
X575969D01*
Y219409D02*
Y220590D01*
X572031Y219409D02*
Y220590D01*
X575969D01*
Y239409D02*
Y240591D01*
X572031Y239409D02*
Y240591D01*
X575969D01*
Y259409D02*
Y260591D01*
X572031Y259409D02*
Y260591D01*
X575969D01*
Y279410D02*
Y280591D01*
X572031Y279410D02*
Y280591D01*
X575969D01*
X595968Y139409D02*
Y140591D01*
X592031Y139409D02*
Y140591D01*
X595968D01*
Y159409D02*
Y160591D01*
X592031Y159409D02*
Y160591D01*
X595968D01*
Y179409D02*
Y180591D01*
X592031Y179409D02*
Y180591D01*
X595968D01*
Y199409D02*
Y200591D01*
X592031Y199409D02*
Y200591D01*
X595968D01*
Y219409D02*
Y220590D01*
X592031Y219409D02*
Y220590D01*
X595968D01*
Y239409D02*
Y240591D01*
X592031Y239409D02*
Y240591D01*
X595968D01*
Y259409D02*
Y260591D01*
X592031Y259409D02*
Y260591D01*
X595968D01*
Y279410D02*
Y280591D01*
X592031Y279410D02*
Y280591D01*
X595968D01*
X615969Y139409D02*
Y140591D01*
X612032Y139409D02*
Y140591D01*
X615969D01*
Y159409D02*
Y160591D01*
X612032Y159409D02*
Y160591D01*
X615969D01*
Y179409D02*
Y180591D01*
X612032Y179409D02*
Y180591D01*
X615969D01*
Y199409D02*
Y200591D01*
X612032Y199409D02*
Y200591D01*
X615969D01*
Y219409D02*
Y220590D01*
X612032Y219409D02*
Y220590D01*
X615969D01*
Y239409D02*
Y240591D01*
X612032Y239409D02*
Y240591D01*
X615969D01*
Y259409D02*
Y260591D01*
X612032Y259409D02*
Y260591D01*
X615969D01*
Y279410D02*
Y280591D01*
X612032Y279410D02*
Y280591D01*
X615969D01*
X345500Y237941D02*
Y243059D01*
X261000Y297500D02*
Y302500D01*
X311000D01*
Y297500D02*
Y302500D01*
X307667D02*
Y315833D01*
X306000Y317500D02*
X307667Y315833D01*
X304333D02*
X306000Y317500D01*
X304333Y302500D02*
Y315833D01*
X297667Y302500D02*
Y315833D01*
X296000Y317500D02*
X297667Y315833D01*
X294333D02*
X296000Y317500D01*
X294333Y302500D02*
Y315833D01*
X287667D02*
X287667Y302500D01*
X286000Y317500D02*
X287667Y315833D01*
X284333Y315833D02*
X286000Y317500D01*
X284333Y302500D02*
Y315833D01*
X277667Y302500D02*
X277667Y315833D01*
X276000Y317500D02*
X277667Y315833D01*
X274333D02*
X276000Y317500D01*
X274333Y302500D02*
Y315833D01*
X267667Y302500D02*
Y315833D01*
X266000Y317500D02*
X267667Y315833D01*
X264333D02*
X266000Y317500D01*
X264333Y302500D02*
Y315833D01*
X261000Y297500D02*
X311000D01*
X440000Y187500D02*
Y207500D01*
X430000D02*
X440000D01*
X430000D02*
X430000Y187500D01*
X440000D01*
X420441Y284500D02*
X425559D01*
M02*
