G04*
G04 #@! TF.GenerationSoftware,Altium Limited,Altium Designer,18.1.9 (240)*
G04*
G04 Layer_Color=128*
%FSLAX25Y25*%
%MOIN*%
G70*
G01*
G75*
%ADD19R,0.05512X0.05906*%
%ADD20R,0.05906X0.05512*%
%ADD52R,0.04724X0.02362*%
%ADD53O,0.08661X0.02362*%
%ADD54O,0.09055X0.02362*%
%ADD55R,0.01200X0.02000*%
%ADD56R,0.02000X0.01200*%
%ADD57R,0.04331X0.04724*%
%ADD58R,0.05512X0.04724*%
%ADD59R,0.04724X0.05512*%
%ADD60R,0.08800X0.11000*%
%ADD61R,0.08700X0.11000*%
%ADD62R,0.11000X0.11000*%
%ADD63R,0.01181X0.01181*%
%ADD64C,0.02000*%
G04:AMPARAMS|DCode=65|XSize=11.02mil|YSize=33.47mil|CornerRadius=0mil|HoleSize=0mil|Usage=FLASHONLY|Rotation=225.000|XOffset=0mil|YOffset=0mil|HoleType=Round|Shape=Rectangle|*
%AMROTATEDRECTD65*
4,1,4,-0.00793,0.01573,0.01573,-0.00793,0.00793,-0.01573,-0.01573,0.00793,-0.00793,0.01573,0.0*
%
%ADD65ROTATEDRECTD65*%

G04:AMPARAMS|DCode=66|XSize=11.02mil|YSize=33.47mil|CornerRadius=0mil|HoleSize=0mil|Usage=FLASHONLY|Rotation=135.000|XOffset=0mil|YOffset=0mil|HoleType=Round|Shape=Rectangle|*
%AMROTATEDRECTD66*
4,1,4,0.01573,0.00793,-0.00793,-0.01573,-0.01573,-0.00793,0.00793,0.01573,0.01573,0.00793,0.0*
%
%ADD66ROTATEDRECTD66*%

%ADD89P,0.07795X4X270.0*%
D19*
X511563Y284500D02*
D03*
X519437D02*
D03*
Y274500D02*
D03*
X511563D02*
D03*
X586437Y202500D02*
D03*
X578563D02*
D03*
X536063Y259000D02*
D03*
X543937D02*
D03*
X536063Y281000D02*
D03*
X543937D02*
D03*
X206063Y255000D02*
D03*
X213937D02*
D03*
D20*
X425000Y201437D02*
D03*
Y193563D02*
D03*
X602000Y233937D02*
D03*
Y226063D02*
D03*
X592000Y233937D02*
D03*
Y226063D02*
D03*
D52*
X534842Y266260D02*
D03*
Y273740D02*
D03*
X545157Y266260D02*
D03*
Y270000D02*
D03*
Y273740D02*
D03*
D53*
X569114Y160000D02*
D03*
Y165000D02*
D03*
Y170000D02*
D03*
Y175000D02*
D03*
Y180000D02*
D03*
Y185000D02*
D03*
Y190000D02*
D03*
Y195000D02*
D03*
X595886Y160000D02*
D03*
Y165000D02*
D03*
Y170000D02*
D03*
Y175000D02*
D03*
Y180000D02*
D03*
Y185000D02*
D03*
Y190000D02*
D03*
Y195000D02*
D03*
X241114Y169000D02*
D03*
Y174000D02*
D03*
Y179000D02*
D03*
Y184000D02*
D03*
Y189000D02*
D03*
Y194000D02*
D03*
Y199000D02*
D03*
Y204000D02*
D03*
X267886Y169000D02*
D03*
Y174000D02*
D03*
Y179000D02*
D03*
Y184000D02*
D03*
Y189000D02*
D03*
Y194000D02*
D03*
Y199000D02*
D03*
Y204000D02*
D03*
X223386Y247500D02*
D03*
Y242500D02*
D03*
Y237500D02*
D03*
Y232500D02*
D03*
Y227500D02*
D03*
Y222500D02*
D03*
Y217500D02*
D03*
Y212500D02*
D03*
X196614Y247500D02*
D03*
Y242500D02*
D03*
Y237500D02*
D03*
Y232500D02*
D03*
Y227500D02*
D03*
Y222500D02*
D03*
Y217500D02*
D03*
Y212500D02*
D03*
D54*
X227913Y199000D02*
D03*
Y194000D02*
D03*
Y189000D02*
D03*
Y184000D02*
D03*
Y179000D02*
D03*
Y174000D02*
D03*
Y169000D02*
D03*
Y164000D02*
D03*
Y159000D02*
D03*
X192087Y199000D02*
D03*
Y194000D02*
D03*
Y189000D02*
D03*
Y184000D02*
D03*
Y179000D02*
D03*
Y174000D02*
D03*
Y169000D02*
D03*
Y164000D02*
D03*
Y159000D02*
D03*
D55*
X172500Y242500D02*
D03*
X174500D02*
D03*
X176500D02*
D03*
X178500D02*
D03*
X180500D02*
D03*
X182500D02*
D03*
X184500D02*
D03*
X186500D02*
D03*
X172500Y247500D02*
D03*
X174500D02*
D03*
X176500D02*
D03*
X178500D02*
D03*
X180500D02*
D03*
X182500D02*
D03*
X184500D02*
D03*
X186500D02*
D03*
X608000Y200000D02*
D03*
X610000D02*
D03*
X612000D02*
D03*
X614000D02*
D03*
X616000D02*
D03*
X618000D02*
D03*
X620000D02*
D03*
X622000D02*
D03*
X608000Y205000D02*
D03*
X610000D02*
D03*
X612000D02*
D03*
X614000D02*
D03*
X616000D02*
D03*
X618000D02*
D03*
X620000D02*
D03*
X622000D02*
D03*
D56*
X403000Y254000D02*
D03*
Y256000D02*
D03*
Y258000D02*
D03*
Y260000D02*
D03*
Y262000D02*
D03*
Y264000D02*
D03*
Y266000D02*
D03*
Y268000D02*
D03*
X398000Y254000D02*
D03*
Y256000D02*
D03*
Y258000D02*
D03*
Y260000D02*
D03*
Y262000D02*
D03*
Y264000D02*
D03*
Y266000D02*
D03*
Y268000D02*
D03*
D57*
X504134Y274500D02*
D03*
X495866D02*
D03*
X504134Y284500D02*
D03*
X495866D02*
D03*
X481366D02*
D03*
X489634D02*
D03*
D58*
X357100Y277957D02*
D03*
Y285043D02*
D03*
X348500Y277957D02*
D03*
Y285043D02*
D03*
X336500Y277957D02*
D03*
Y285043D02*
D03*
X329000Y285043D02*
D03*
Y277957D02*
D03*
X377000Y144061D02*
D03*
Y151147D02*
D03*
X369500Y151060D02*
D03*
Y158147D02*
D03*
X377000Y158061D02*
D03*
Y165147D02*
D03*
X369500Y165060D02*
D03*
Y172147D02*
D03*
X377000Y172061D02*
D03*
Y179147D02*
D03*
X369500Y186147D02*
D03*
Y179060D02*
D03*
X377000Y186061D02*
D03*
Y193147D02*
D03*
D59*
X475043Y284500D02*
D03*
X467957D02*
D03*
D60*
X611900Y255400D02*
D03*
X449400Y152900D02*
D03*
D61*
X604000Y284600D02*
D03*
X441500Y182100D02*
D03*
D62*
X574900Y255400D02*
D03*
X558700Y273000D02*
D03*
X396200Y170500D02*
D03*
X412400Y152900D02*
D03*
D63*
X582953Y232953D02*
D03*
X580984D02*
D03*
X579016D02*
D03*
X577047D02*
D03*
X582953Y230984D02*
D03*
X577047D02*
D03*
X582953Y229016D02*
D03*
X577047D02*
D03*
X582953Y227047D02*
D03*
X580984D02*
D03*
X579016D02*
D03*
X577047D02*
D03*
D64*
X380000Y270000D02*
D03*
D65*
X377982Y281762D02*
D03*
X376590Y280370D02*
D03*
X375198Y278978D02*
D03*
X373806Y277586D02*
D03*
X372414Y276194D02*
D03*
X371022Y274802D02*
D03*
X369630Y273410D02*
D03*
X368238Y272018D02*
D03*
X382018Y258238D02*
D03*
X383410Y259630D02*
D03*
X384802Y261022D02*
D03*
X386194Y262414D02*
D03*
X387586Y263806D02*
D03*
X388978Y265198D02*
D03*
X390370Y266590D02*
D03*
X391762Y267982D02*
D03*
D66*
X368238D02*
D03*
X369630Y266590D02*
D03*
X371022Y265198D02*
D03*
X372414Y263806D02*
D03*
X373806Y262414D02*
D03*
X375198Y261022D02*
D03*
X376590Y259630D02*
D03*
X377982Y258238D02*
D03*
X391762Y272018D02*
D03*
X390370Y273410D02*
D03*
X388978Y274802D02*
D03*
X387586Y276194D02*
D03*
X386194Y277586D02*
D03*
X384802Y278978D02*
D03*
X383410Y280370D02*
D03*
X382018Y281762D02*
D03*
D89*
X380000Y274454D02*
D03*
X384454Y270000D02*
D03*
X380000Y265546D02*
D03*
X375546Y270000D02*
D03*
M02*
