M48
;Layer_Color=9474304
;FILE_FORMAT=2:5
INCH,TZ
;TYPE=PLATED
T1F00S00C0.01575
T2F00S00C0.03543
T3F00S00C0.03937
T4F00S00C0.05906
T5F00S00C0.06700
T6F00S00C0.07874
%
T01
X173000Y135000
X178000Y137500
Y142500
X181000Y145000
Y140000
X184500Y148000
X187500Y151000
X198000Y142500
Y137500
X201000Y140000
Y145000
X205000Y148000
X218000Y142500
Y137500
X221000Y140000
Y145000
X224500Y148000
X227000Y151500
X247000
X245000Y148000
X241000Y145000
Y140000
X238000Y142500
Y137500
X232000Y135000
X212000
X192500
X254000Y142500
X258500Y145000
X259500Y151500
X265000Y148000
X278000Y142500
Y137500
X281000Y140000
Y145000
X285000Y148000
X298000Y142500
Y137500
X301000Y140000
Y145000
X305000Y148000
X312000Y135000
X292000
X272000
X318000Y137500
Y142500
X321000Y145000
Y149000
Y154000
Y140000
X479000
Y145000
Y149000
Y154000
X482000Y142500
Y137500
X488000Y135000
X499000Y140000
Y145000
X502000Y142500
Y137500
X508000Y135000
X519000Y140000
Y145000
X522000Y142500
Y137500
X528000Y135000
X535000Y148000
X543000Y145000
X547000Y142500
X555000Y148000
X559000Y145000
Y140000
X562000Y137500
Y142500
X568000Y135000
X579000Y140000
Y145000
X582000Y142500
Y137500
X588000Y135000
X599000Y140000
Y145000
X602000Y142500
Y137500
X608000Y135000
X619000
Y140000
Y145000
X622000Y142500
Y137500
X622500Y131500
X615000Y148000
X596500
X594000Y151000
X576000Y148000
X573000Y151000
X515000Y148000
X495000
X494000Y169500
X514000Y169500
X534000
X546000Y173000
X545000Y177000
X546000Y185000
Y197000
X545000Y203000
X537866Y195866
X519000Y193000
X494000Y191500
X505500Y225500
X540500Y231000
X547000
X546785Y218215
X541205Y218205
X541500Y248000
X553500Y250500
X547500Y260000
X568299Y271701
X585451Y275710
X599866Y275866
X587500Y289000
X594000Y295862
X584500Y255500
X587000Y246500
Y234000
Y220000
X607000Y226000
X617500Y230000
X607000Y208000
X587000Y192500
Y188500
X611000Y171000
X617000Y168500
X554000
X561000Y235500
X567000Y231000
Y246500
X605000Y252500
X536000Y295862
X521000Y290500
X485500Y290000
X504500Y266500
X464500Y267500
X467000Y222500
Y218500
X417000Y238500
X420000Y241500
X417000Y244500
X420000Y247500
X419500Y275000
X415000
X410500Y273500
X404986Y289000
X400000
X384500Y290000
X380000Y287500
X375500Y286000
X370000Y286500
X380000Y276000
Y270000
X377000Y267000
X380000Y264000
X383000Y267000
X386000Y270000
X383000Y273000
X377000
X374000Y270000
X357000Y270500
X350500Y269000
X353500Y265000
X359500Y264500
X339000Y258000
X335500Y254000
X332000Y272500
X343000Y276000
X342500Y291000
X326000Y295862
X316000Y291500
X317000Y281000
X312500Y280000
X315500Y276000
X318000Y271000
X313000Y254000
X316000Y233000
X333500Y223500
Y219500
X378500Y253500
X384000
X389500
X423000Y289000
X433000Y161604
X401000Y161000
X386500Y165104
Y172104
X306000Y169000
X286000
X257000
X259500Y190500
X259000Y219000
X251500Y218000
X231000Y215500
X211500Y212500
X213000Y208000
X211500Y235500
X213500Y242500
X235000Y247500
X253000Y246000
X259000
X276000Y259500
X277000Y266000
X293000Y266500
X296500Y264500
X300000Y266500
X293000Y282000
X281134Y284134
X271000
X272000Y280000
X252500
X232500
X212500
X192500
X172000Y199000
X206000Y169000
X273000Y211500
X286500Y211000
X292500Y209500
X310500Y211500
X286500Y231000
T02
X435000Y192500
Y202500
X306000Y292500
X296000
X286000
X276000
X266000
T03
X366142Y127500
X383858
X413642
X431358
X383858Y207500
X366142
T04
X401000Y139604
X408000Y197104
T05
X579900Y270000
X607500
X445000Y167500
X417400
T06
X544000Y161000
Y212000
X256000Y213000
X255500Y260500
X236000Y259000
X197000Y256000
M30
