G04*
G04 #@! TF.GenerationSoftware,Altium Limited,Altium Designer,18.1.9 (240)*
G04*
G04 Layer_Color=8388736*
%FSLAX25Y25*%
%MOIN*%
G70*
G01*
G75*
%ADD21R,0.03950X0.07887*%
%ADD22R,0.03398X0.04343*%
%ADD23R,0.03398X0.04343*%
%ADD24R,0.06706X0.08674*%
%ADD25R,0.04343X0.06706*%
%ADD26R,0.05524X0.05131*%
%ADD27R,0.06312X0.06706*%
%ADD28R,0.06706X0.06312*%
%ADD29C,0.08674*%
%ADD30R,0.06706X0.06706*%
%ADD31C,0.06706*%
%ADD32R,0.06706X0.06706*%
%ADD33C,0.03599*%
%ADD34C,0.03600*%
%ADD35C,0.03200*%
%ADD36C,0.12611*%
%ADD37C,0.07500*%
G36*
X443112Y272567D02*
X443911Y272533D01*
X444674Y272428D01*
X445369Y272290D01*
X446063Y272151D01*
X446688Y271977D01*
X447278Y271769D01*
X447834Y271595D01*
X448320Y271422D01*
X448737Y271213D01*
X449119Y271040D01*
X449431Y270901D01*
X449674Y270762D01*
X449848Y270692D01*
X449952Y270623D01*
X449987Y270588D01*
X450577Y270206D01*
X451098Y269790D01*
X451618Y269338D01*
X452105Y268887D01*
X452556Y268436D01*
X452938Y267984D01*
X453320Y267533D01*
X453632Y267082D01*
X453945Y266700D01*
X454188Y266318D01*
X454431Y265971D01*
X454604Y265693D01*
X454743Y265450D01*
X454847Y265241D01*
X454882Y265137D01*
X454917Y265103D01*
X455229Y264443D01*
X455472Y263783D01*
X455715Y263123D01*
X455924Y262429D01*
X456236Y261144D01*
X456340Y260520D01*
X456445Y259929D01*
X456514Y259374D01*
X456549Y258888D01*
X456583Y258436D01*
X456618Y258054D01*
X456653Y257742D01*
Y257534D01*
Y257360D01*
Y257325D01*
X456618Y256596D01*
X456583Y255867D01*
X456375Y254444D01*
X456028Y253089D01*
X455611Y251839D01*
X455125Y250624D01*
X454570Y249513D01*
X453979Y248472D01*
X453354Y247534D01*
X452729Y246701D01*
X452139Y245972D01*
X451584Y245312D01*
X451098Y244757D01*
X450681Y244340D01*
X450334Y244027D01*
X450125Y243854D01*
X450091Y243784D01*
X457000D01*
Y240000D01*
X444570D01*
Y243541D01*
X445265Y243923D01*
X445924Y244305D01*
X446549Y244722D01*
X447105Y245173D01*
X447660Y245659D01*
X448146Y246145D01*
X448598Y246666D01*
X449014Y247187D01*
X449778Y248298D01*
X450403Y249409D01*
X450889Y250520D01*
X451306Y251631D01*
X451618Y252673D01*
X451861Y253645D01*
X452035Y254548D01*
X452139Y255346D01*
X452209Y255693D01*
X452243Y256006D01*
Y256249D01*
X452278Y256492D01*
Y256666D01*
Y256804D01*
Y256874D01*
Y256909D01*
X452243Y257846D01*
X452174Y258749D01*
X452035Y259582D01*
X451861Y260381D01*
X451653Y261144D01*
X451410Y261839D01*
X451167Y262499D01*
X450924Y263089D01*
X450681Y263644D01*
X450438Y264096D01*
X450195Y264512D01*
X449987Y264860D01*
X449813Y265137D01*
X449674Y265311D01*
X449605Y265450D01*
X449570Y265484D01*
X449049Y266109D01*
X448494Y266630D01*
X447903Y267116D01*
X447313Y267498D01*
X446688Y267845D01*
X446098Y268123D01*
X445508Y268366D01*
X444952Y268540D01*
X444397Y268713D01*
X443911Y268818D01*
X443494Y268887D01*
X443077Y268922D01*
X442765Y268956D01*
X442556Y268991D01*
X442348D01*
X441550Y268956D01*
X440786Y268852D01*
X440057Y268679D01*
X439397Y268436D01*
X438772Y268193D01*
X438182Y267880D01*
X437626Y267568D01*
X437140Y267255D01*
X436724Y266943D01*
X436342Y266630D01*
X435994Y266318D01*
X435717Y266075D01*
X435508Y265832D01*
X435369Y265658D01*
X435265Y265554D01*
X435231Y265519D01*
X434745Y264860D01*
X434328Y264130D01*
X433946Y263401D01*
X433633Y262672D01*
X433356Y261943D01*
X433113Y261179D01*
X432939Y260485D01*
X432800Y259790D01*
X432696Y259131D01*
X432592Y258541D01*
X432522Y258020D01*
X432488Y257568D01*
X432453Y257186D01*
Y256909D01*
Y256735D01*
Y256666D01*
X432488Y255798D01*
X432522Y254964D01*
X432627Y254131D01*
X432800Y253367D01*
X433147Y251909D01*
X433668Y250590D01*
X434224Y249409D01*
X434883Y248333D01*
X435578Y247361D01*
X436307Y246527D01*
X437036Y245798D01*
X437730Y245173D01*
X438355Y244687D01*
X438946Y244271D01*
X439432Y243923D01*
X439814Y243715D01*
X439953Y243646D01*
X440057Y243576D01*
X440126Y243541D01*
X440161D01*
Y240000D01*
X427731D01*
Y243784D01*
X434710D01*
X434120Y244305D01*
X433529Y244861D01*
X433008Y245382D01*
X432522Y245937D01*
X431620Y247083D01*
X430891Y248229D01*
X430231Y249374D01*
X429710Y250485D01*
X429259Y251596D01*
X428911Y252638D01*
X428634Y253610D01*
X428425Y254513D01*
X428287Y255311D01*
X428182Y255971D01*
X428148Y256284D01*
X428113Y256561D01*
Y256770D01*
X428078Y256978D01*
Y257117D01*
Y257221D01*
Y257291D01*
Y257325D01*
X428113Y258193D01*
X428148Y259027D01*
X428252Y259825D01*
X428391Y260589D01*
X428530Y261318D01*
X428703Y261978D01*
X428877Y262603D01*
X429050Y263193D01*
X429224Y263679D01*
X429398Y264165D01*
X429571Y264547D01*
X429710Y264860D01*
X429849Y265137D01*
X429953Y265346D01*
X429988Y265450D01*
X430023Y265484D01*
X430405Y266109D01*
X430786Y266700D01*
X431168Y267255D01*
X431585Y267776D01*
X432002Y268227D01*
X432418Y268679D01*
X432800Y269061D01*
X433182Y269408D01*
X433529Y269720D01*
X433877Y269998D01*
X434154Y270241D01*
X434432Y270415D01*
X434640Y270554D01*
X434779Y270692D01*
X434883Y270727D01*
X434918Y270762D01*
X435474Y271074D01*
X436064Y271387D01*
X436689Y271630D01*
X437314Y271838D01*
X438529Y272151D01*
X439709Y272359D01*
X440230Y272463D01*
X440716Y272498D01*
X441168Y272533D01*
X441550Y272567D01*
X441862Y272602D01*
X442279D01*
X443112Y272567D01*
D02*
G37*
D21*
X395000Y287000D02*
D03*
X400000D02*
D03*
X405000D02*
D03*
X410000D02*
D03*
D22*
X342200Y247300D02*
D03*
D23*
X350800D02*
D03*
Y252700D02*
D03*
X342200D02*
D03*
D24*
X426142Y152736D02*
D03*
X443858Y152736D02*
D03*
X426142Y182264D02*
D03*
X443858D02*
D03*
X396142Y152736D02*
D03*
X413858D02*
D03*
X396142Y182264D02*
D03*
X413858D02*
D03*
X366142Y152736D02*
D03*
X383858Y152736D02*
D03*
X366142Y182264D02*
D03*
X383858Y182264D02*
D03*
D25*
X253205Y223898D02*
D03*
X258785D02*
D03*
X253215Y236102D02*
D03*
X258785D02*
D03*
X541205Y223898D02*
D03*
X546785D02*
D03*
X541215Y236102D02*
D03*
X546785D02*
D03*
D26*
X186000Y144134D02*
D03*
Y135866D02*
D03*
Y164134D02*
D03*
Y155866D02*
D03*
Y184134D02*
D03*
Y175866D02*
D03*
Y204134D02*
D03*
Y195866D02*
D03*
Y224134D02*
D03*
Y215866D02*
D03*
Y244134D02*
D03*
Y235866D02*
D03*
Y264134D02*
D03*
Y255866D02*
D03*
Y284134D02*
D03*
Y275866D02*
D03*
X206000Y144134D02*
D03*
Y135866D02*
D03*
Y164134D02*
D03*
Y155866D02*
D03*
Y184134D02*
D03*
Y175866D02*
D03*
Y204134D02*
D03*
Y195866D02*
D03*
Y224134D02*
D03*
Y215866D02*
D03*
Y244134D02*
D03*
Y235866D02*
D03*
Y264134D02*
D03*
Y255866D02*
D03*
Y284134D02*
D03*
Y275866D02*
D03*
X226000Y144134D02*
D03*
Y135866D02*
D03*
Y164134D02*
D03*
Y155866D02*
D03*
Y184134D02*
D03*
Y175866D02*
D03*
Y204134D02*
D03*
Y195866D02*
D03*
Y224134D02*
D03*
Y215866D02*
D03*
Y244134D02*
D03*
Y235866D02*
D03*
Y264134D02*
D03*
Y255866D02*
D03*
Y284134D02*
D03*
Y275866D02*
D03*
X246000Y144134D02*
D03*
Y135866D02*
D03*
Y164134D02*
D03*
Y155866D02*
D03*
Y184134D02*
D03*
Y175866D02*
D03*
Y204134D02*
D03*
Y195866D02*
D03*
Y224134D02*
D03*
Y215866D02*
D03*
Y244134D02*
D03*
Y235866D02*
D03*
Y264134D02*
D03*
Y255866D02*
D03*
Y284134D02*
D03*
Y275866D02*
D03*
X266000Y144134D02*
D03*
Y135866D02*
D03*
Y164134D02*
D03*
Y155866D02*
D03*
Y184134D02*
D03*
Y175866D02*
D03*
Y204134D02*
D03*
Y195866D02*
D03*
Y224134D02*
D03*
Y215866D02*
D03*
Y244134D02*
D03*
Y235866D02*
D03*
Y264134D02*
D03*
Y255866D02*
D03*
Y284134D02*
D03*
Y275866D02*
D03*
X286000Y144134D02*
D03*
Y135866D02*
D03*
Y164134D02*
D03*
Y155866D02*
D03*
Y184134D02*
D03*
Y175866D02*
D03*
Y204134D02*
D03*
Y195866D02*
D03*
Y224134D02*
D03*
Y215866D02*
D03*
Y244134D02*
D03*
Y235866D02*
D03*
Y264134D02*
D03*
Y255866D02*
D03*
Y284134D02*
D03*
Y275866D02*
D03*
X306000Y144134D02*
D03*
Y135866D02*
D03*
Y164134D02*
D03*
Y155866D02*
D03*
Y184134D02*
D03*
Y175866D02*
D03*
Y204134D02*
D03*
Y195866D02*
D03*
Y224134D02*
D03*
Y215866D02*
D03*
Y244134D02*
D03*
Y235866D02*
D03*
Y264134D02*
D03*
Y255866D02*
D03*
Y284134D02*
D03*
Y275866D02*
D03*
X326000Y144134D02*
D03*
Y135866D02*
D03*
Y164134D02*
D03*
Y155866D02*
D03*
Y184134D02*
D03*
Y175866D02*
D03*
Y204134D02*
D03*
Y195866D02*
D03*
Y224134D02*
D03*
Y215866D02*
D03*
Y244134D02*
D03*
Y235866D02*
D03*
Y264134D02*
D03*
Y255866D02*
D03*
Y284134D02*
D03*
Y275866D02*
D03*
X474000Y144134D02*
D03*
Y135866D02*
D03*
Y164134D02*
D03*
Y155866D02*
D03*
Y184134D02*
D03*
Y175866D02*
D03*
Y204134D02*
D03*
Y195866D02*
D03*
Y224134D02*
D03*
Y215866D02*
D03*
Y244134D02*
D03*
Y235866D02*
D03*
Y264134D02*
D03*
Y255866D02*
D03*
Y284134D02*
D03*
Y275866D02*
D03*
X494000Y144134D02*
D03*
Y135866D02*
D03*
Y164134D02*
D03*
Y155866D02*
D03*
Y184134D02*
D03*
Y175866D02*
D03*
Y204134D02*
D03*
Y195866D02*
D03*
Y224134D02*
D03*
Y215866D02*
D03*
Y244134D02*
D03*
Y235866D02*
D03*
Y264134D02*
D03*
Y255866D02*
D03*
Y284134D02*
D03*
Y275866D02*
D03*
X514000Y144134D02*
D03*
Y135866D02*
D03*
Y164134D02*
D03*
Y155866D02*
D03*
Y184134D02*
D03*
Y175866D02*
D03*
Y204134D02*
D03*
Y195866D02*
D03*
Y224134D02*
D03*
Y215866D02*
D03*
Y244134D02*
D03*
Y235866D02*
D03*
Y264134D02*
D03*
Y255866D02*
D03*
Y284134D02*
D03*
Y275866D02*
D03*
X534000Y144134D02*
D03*
Y135866D02*
D03*
Y164134D02*
D03*
Y155866D02*
D03*
Y184134D02*
D03*
Y175866D02*
D03*
Y204134D02*
D03*
Y195866D02*
D03*
Y224134D02*
D03*
Y215866D02*
D03*
Y244134D02*
D03*
Y235866D02*
D03*
Y264134D02*
D03*
Y255866D02*
D03*
Y284134D02*
D03*
Y275866D02*
D03*
X554000Y144134D02*
D03*
Y135866D02*
D03*
Y164134D02*
D03*
Y155866D02*
D03*
Y184134D02*
D03*
Y175866D02*
D03*
Y204134D02*
D03*
Y195866D02*
D03*
Y224134D02*
D03*
Y215866D02*
D03*
Y244134D02*
D03*
Y235866D02*
D03*
Y264134D02*
D03*
Y255866D02*
D03*
Y284134D02*
D03*
Y275866D02*
D03*
X574000Y144134D02*
D03*
Y135866D02*
D03*
Y164134D02*
D03*
Y155866D02*
D03*
Y184134D02*
D03*
Y175866D02*
D03*
Y204134D02*
D03*
Y195866D02*
D03*
Y224134D02*
D03*
Y215866D02*
D03*
Y244134D02*
D03*
Y235866D02*
D03*
Y264134D02*
D03*
Y255866D02*
D03*
Y284134D02*
D03*
Y275866D02*
D03*
X594000Y144134D02*
D03*
Y135866D02*
D03*
Y164134D02*
D03*
Y155866D02*
D03*
Y184134D02*
D03*
Y175866D02*
D03*
Y204134D02*
D03*
Y195866D02*
D03*
Y224134D02*
D03*
Y215866D02*
D03*
Y244134D02*
D03*
Y235866D02*
D03*
Y264134D02*
D03*
Y255866D02*
D03*
Y284134D02*
D03*
Y275866D02*
D03*
X614000Y144134D02*
D03*
Y135866D02*
D03*
Y164134D02*
D03*
Y155866D02*
D03*
Y184134D02*
D03*
Y175866D02*
D03*
Y204134D02*
D03*
Y195866D02*
D03*
Y224134D02*
D03*
Y215866D02*
D03*
Y244134D02*
D03*
Y235866D02*
D03*
Y264134D02*
D03*
Y255866D02*
D03*
Y284134D02*
D03*
Y275866D02*
D03*
D27*
X349437Y240500D02*
D03*
X341563D02*
D03*
D28*
X423000Y280563D02*
D03*
Y288437D02*
D03*
D29*
X383858Y127500D02*
D03*
X366142D02*
D03*
X366142Y207500D02*
D03*
X383858D02*
D03*
X431358Y127500D02*
D03*
X413642D02*
D03*
X197000Y256000D02*
D03*
X544000Y161000D02*
D03*
X255500Y260500D02*
D03*
X236000Y259000D02*
D03*
X544000Y212000D02*
D03*
X256000Y213000D02*
D03*
D30*
X306000Y292500D02*
D03*
D31*
X296000D02*
D03*
X286000D02*
D03*
X276000D02*
D03*
X266000D02*
D03*
X435000Y192500D02*
D03*
D32*
Y202500D02*
D03*
D33*
X404986Y289000D02*
D03*
X423000D02*
D03*
X400000D02*
D03*
D34*
X433000Y161604D02*
D03*
X547500Y260000D02*
D03*
X561000Y235500D02*
D03*
X380000Y287500D02*
D03*
X384500Y290000D02*
D03*
X339000Y258000D02*
D03*
X370000Y286500D02*
D03*
X375500Y286000D02*
D03*
X276000Y259500D02*
D03*
X293000Y266500D02*
D03*
X296500Y264500D02*
D03*
X318000Y271000D02*
D03*
X316000Y233000D02*
D03*
X315500Y276000D02*
D03*
X332000Y272500D02*
D03*
X343000Y276000D02*
D03*
X350500Y269000D02*
D03*
X317000Y281000D02*
D03*
X293000Y282000D02*
D03*
X553500Y250500D02*
D03*
X464500Y267500D02*
D03*
X335500Y254000D02*
D03*
X333500Y219500D02*
D03*
Y223500D02*
D03*
X353500Y265000D02*
D03*
X359500Y264500D02*
D03*
X259500Y190500D02*
D03*
X257000Y169000D02*
D03*
X184500Y148000D02*
D03*
X467000Y222500D02*
D03*
Y218500D02*
D03*
X554000Y168500D02*
D03*
X546000Y173000D02*
D03*
X380000Y270000D02*
D03*
X536000Y295862D02*
D03*
X541500Y248000D02*
D03*
X587000Y246500D02*
D03*
X504500Y266500D02*
D03*
X540500Y231000D02*
D03*
X547000D02*
D03*
X599866Y275866D02*
D03*
X259000Y219000D02*
D03*
X587000Y234000D02*
D03*
X607000Y226000D02*
D03*
X584500Y255500D02*
D03*
X546000Y197000D02*
D03*
Y185000D02*
D03*
X546785Y218215D02*
D03*
X541205Y218205D02*
D03*
X251500Y218000D02*
D03*
X235000Y247500D02*
D03*
X259000Y246000D02*
D03*
X253000D02*
D03*
X494000Y191500D02*
D03*
X562000Y137500D02*
D03*
X301000Y145000D02*
D03*
X298000Y142500D02*
D03*
X301000Y140000D02*
D03*
X298000Y137500D02*
D03*
X479000Y145000D02*
D03*
X482000Y142500D02*
D03*
X479000Y140000D02*
D03*
X482000Y137500D02*
D03*
X321000Y145000D02*
D03*
X318000Y142500D02*
D03*
Y137500D02*
D03*
X285000Y148000D02*
D03*
X281000Y145000D02*
D03*
X278000Y142500D02*
D03*
X281000Y140000D02*
D03*
X278000Y137500D02*
D03*
X265000Y148000D02*
D03*
X245000D02*
D03*
X247000Y151500D02*
D03*
X241000Y145000D02*
D03*
X238000Y142500D02*
D03*
X241000Y140000D02*
D03*
X238000Y137500D02*
D03*
X221000Y145000D02*
D03*
X218000Y142500D02*
D03*
X221000Y140000D02*
D03*
X218000Y137500D02*
D03*
X205000Y148000D02*
D03*
X201000Y145000D02*
D03*
X198000Y142500D02*
D03*
X201000Y140000D02*
D03*
X198000Y137500D02*
D03*
X181000Y145000D02*
D03*
X178000Y142500D02*
D03*
X181000Y140000D02*
D03*
X178000Y137500D02*
D03*
X321000Y149000D02*
D03*
Y154000D02*
D03*
Y140000D02*
D03*
X495000Y148000D02*
D03*
X499000Y145000D02*
D03*
X502000Y142500D02*
D03*
X499000Y140000D02*
D03*
X502000Y137500D02*
D03*
X515000Y148000D02*
D03*
X519000Y145000D02*
D03*
X522000Y142500D02*
D03*
X519000Y140000D02*
D03*
X522000Y137500D02*
D03*
X535000Y148000D02*
D03*
X555000D02*
D03*
X559000Y145000D02*
D03*
X562000Y142500D02*
D03*
X559000Y140000D02*
D03*
X579000Y145000D02*
D03*
X582000Y142500D02*
D03*
X579000Y140000D02*
D03*
X582000Y137500D02*
D03*
X599000Y145000D02*
D03*
X602000Y142500D02*
D03*
X599000Y140000D02*
D03*
X602000Y137500D02*
D03*
X615000Y148000D02*
D03*
X619000Y145000D02*
D03*
X622000Y142500D02*
D03*
X619000Y140000D02*
D03*
X622000Y137500D02*
D03*
X619000Y135000D02*
D03*
X479000Y149000D02*
D03*
Y154000D02*
D03*
X192500Y280000D02*
D03*
X212500D02*
D03*
X232500D02*
D03*
X252500D02*
D03*
X312500D02*
D03*
X326000Y295862D02*
D03*
X300000Y266500D02*
D03*
X281134Y284134D02*
D03*
X271000D02*
D03*
X277000Y266000D02*
D03*
X386500Y172104D02*
D03*
Y165104D02*
D03*
X316000Y291500D02*
D03*
X377000Y267000D02*
D03*
X380000Y264000D02*
D03*
X383000Y267000D02*
D03*
X386000Y270000D02*
D03*
X383000Y273000D02*
D03*
X380000Y276000D02*
D03*
X377000Y273000D02*
D03*
X374000Y270000D02*
D03*
X342500Y291000D02*
D03*
X172000Y199000D02*
D03*
X173000Y135000D02*
D03*
X206000Y169000D02*
D03*
X187500Y151000D02*
D03*
X213500Y242500D02*
D03*
X213000Y208000D02*
D03*
X211500Y235500D02*
D03*
Y212500D02*
D03*
X212000Y135000D02*
D03*
X224500Y148000D02*
D03*
X227000Y151500D02*
D03*
X232000Y135000D02*
D03*
X231000Y215500D02*
D03*
X192500Y135000D02*
D03*
X254000Y142500D02*
D03*
X258500Y145000D02*
D03*
X259500Y151500D02*
D03*
X272000Y280000D02*
D03*
X273000Y211500D02*
D03*
X272000Y135000D02*
D03*
X286000Y169000D02*
D03*
X305000Y148000D02*
D03*
X292000Y135000D02*
D03*
X286500Y231000D02*
D03*
Y211000D02*
D03*
X292500Y209500D02*
D03*
X306000Y169000D02*
D03*
X310500Y211500D02*
D03*
X313000Y254000D02*
D03*
X312000Y135000D02*
D03*
X521000Y290500D02*
D03*
X485500Y290000D02*
D03*
X488000Y135000D02*
D03*
X545000Y203000D02*
D03*
Y177000D02*
D03*
X547000Y142500D02*
D03*
X543000Y145000D02*
D03*
X537866Y195866D02*
D03*
X611000Y171000D02*
D03*
X622500Y131500D02*
D03*
X617500Y230000D02*
D03*
X607000Y208000D02*
D03*
X608000Y135000D02*
D03*
X587000Y220000D02*
D03*
Y188500D02*
D03*
X617000Y168500D02*
D03*
X494000Y169500D02*
D03*
X514000Y169500D02*
D03*
X534000D02*
D03*
X596500Y148000D02*
D03*
X594000Y151000D02*
D03*
X576000Y148000D02*
D03*
X573000Y151000D02*
D03*
X587000Y192500D02*
D03*
X588000Y135000D02*
D03*
X567000Y231000D02*
D03*
Y246500D02*
D03*
X568000Y135000D02*
D03*
X528000D02*
D03*
X505500Y225500D02*
D03*
X508000Y135000D02*
D03*
X519000Y193000D02*
D03*
X587500Y289000D02*
D03*
X605000Y252500D02*
D03*
X585451Y275710D02*
D03*
X568299Y271701D02*
D03*
X401000Y161000D02*
D03*
D35*
X594000Y295862D02*
D03*
D36*
X408000Y197104D02*
D03*
X401000Y139604D02*
D03*
D37*
X607500Y270000D02*
D03*
X579900D02*
D03*
X417400Y167500D02*
D03*
X445000D02*
D03*
M02*
