G04*
G04 #@! TF.GenerationSoftware,Altium Limited,Altium Designer,18.1.9 (240)*
G04*
G04 Layer_Color=16711935*
%FSLAX25Y25*%
%MOIN*%
G70*
G01*
G75*
%ADD93C,0.00100*%
D93*
X463985Y168765D02*
X463850Y169785D01*
X463457Y170735D01*
X462831Y171550D01*
X462015Y172176D01*
X461065Y172570D01*
X460046Y172704D01*
X459027Y172570D01*
X458077Y172176D01*
X457261Y171550D01*
X456635Y170735D01*
X456242Y169785D01*
X456108Y168765D01*
X456077Y165235D02*
X456212Y164207D01*
X456609Y163250D01*
X457239Y162428D01*
X458062Y161797D01*
X459019Y161401D01*
X460046Y161265D01*
X461073Y161401D01*
X462031Y161797D01*
X462853Y162428D01*
X463484Y163250D01*
X463880Y164207D01*
X464015Y165235D01*
X336062Y184939D02*
X336196Y183919D01*
X336589Y182969D01*
X337215Y182154D01*
X338031Y181528D01*
X338981Y181134D01*
X340000Y181000D01*
X341019Y181134D01*
X341969Y181528D01*
X342785Y182154D01*
X343411Y182969D01*
X343804Y183919D01*
X343938Y184939D01*
X345000Y213500D02*
X344249Y213189D01*
X343938Y212439D01*
X456000Y212439D02*
X455720Y213176D01*
X455000Y213500D01*
X456000Y184939D02*
X456116Y183981D01*
X456458Y183080D01*
X457006Y182286D01*
X457728Y181647D01*
X458582Y181198D01*
X459518Y180968D01*
X460482Y180968D01*
X461418Y181198D01*
X462272Y181647D01*
X462994Y182286D01*
X463542Y183080D01*
X463884Y183981D01*
X464000Y184939D01*
X464000Y212439D02*
X463944Y213439D01*
X463776Y214428D01*
X463498Y215391D01*
X463115Y216317D01*
X462630Y217194D01*
X462050Y218012D01*
X461382Y218759D01*
X460635Y219427D01*
X459817Y220007D01*
X458940Y220492D01*
X458014Y220875D01*
X457050Y221153D01*
X456062Y221321D01*
X455061Y221377D01*
X345000Y221377D02*
X343999Y221321D01*
X343011Y221153D01*
X342048Y220875D01*
X341122Y220492D01*
X340244Y220007D01*
X339427Y219427D01*
X338680Y218759D01*
X338012Y218012D01*
X337432Y217194D01*
X336947Y216317D01*
X336563Y215391D01*
X336286Y214427D01*
X336118Y213439D01*
X336062Y212439D01*
X343985Y168765D02*
X343850Y169785D01*
X343457Y170735D01*
X342831Y171550D01*
X342015Y172176D01*
X341066Y172570D01*
X340046Y172704D01*
X339027Y172570D01*
X338077Y172176D01*
X337261Y171550D01*
X336635Y170735D01*
X336242Y169785D01*
X336108Y168765D01*
X336077Y165235D02*
X336212Y164207D01*
X336609Y163250D01*
X337239Y162428D01*
X338061Y161797D01*
X339019Y161401D01*
X340046Y161265D01*
X341073Y161401D01*
X342031Y161797D01*
X342853Y162428D01*
X343484Y163250D01*
X343880Y164207D01*
X344015Y165235D01*
X638561Y297562D02*
X638140Y298579D01*
X637123Y299000D01*
X636179Y291811D02*
X636881Y292611D01*
X637472Y293495D01*
X637942Y294449D01*
X638284Y295457D01*
X638492Y296500D01*
X638561Y297562D01*
X631490Y287122D02*
X630831Y286395D01*
X630247Y285606D01*
X629742Y284765D01*
X629323Y283878D01*
X628992Y282954D01*
X628754Y282002D01*
X628610Y281031D01*
X628561Y280051D01*
Y260181D02*
X628610Y259201D01*
X628754Y258230D01*
X628992Y257278D01*
X629323Y256354D01*
X629742Y255467D01*
X630247Y254626D01*
X630831Y253837D01*
X631490Y253110D01*
X639000Y241458D02*
X638952Y242439D01*
X638808Y243409D01*
X638569Y244361D01*
X638239Y245285D01*
X637819Y246172D01*
X637315Y247014D01*
X636730Y247802D01*
X636071Y248530D01*
X635000Y121000D02*
X636035Y121136D01*
X637000Y121536D01*
X637828Y122172D01*
X638464Y123000D01*
X638864Y123965D01*
X639000Y125000D01*
X464000Y131000D02*
X464048Y130020D01*
X464192Y129049D01*
X464431Y128097D01*
X464761Y127173D01*
X465181Y126286D01*
X465685Y125444D01*
X466270Y124656D01*
X466929Y123929D01*
X467656Y123270D01*
X468444Y122685D01*
X469286Y122181D01*
X470173Y121761D01*
X471097Y121431D01*
X472049Y121192D01*
X473020Y121048D01*
X474000Y121000D01*
X464000Y149938D02*
X463863Y150982D01*
X463460Y151954D01*
X462819Y152789D01*
X461985Y153429D01*
X461013Y153832D01*
X459969Y153969D01*
X458942Y153834D01*
X457985Y153437D01*
X457163Y152807D01*
X456532Y151985D01*
X456135Y151027D01*
X456000Y150000D01*
X454939Y121439D02*
X455689Y121749D01*
X456000Y122500D01*
X344000Y122439D02*
X344293Y121731D01*
X345000Y121439D01*
X344000Y149938D02*
X343864Y150974D01*
X343464Y151938D01*
X342828Y152767D01*
X342000Y153403D01*
X341035Y153802D01*
X340000Y153938D01*
X338965Y153802D01*
X338000Y153403D01*
X337172Y152767D01*
X336536Y151938D01*
X336136Y150974D01*
X336000Y149938D01*
X326000Y121000D02*
X326980Y121048D01*
X327951Y121192D01*
X328903Y121431D01*
X329827Y121761D01*
X330714Y122181D01*
X331556Y122685D01*
X332344Y123270D01*
X333071Y123929D01*
X333730Y124656D01*
X334315Y125444D01*
X334819Y126286D01*
X335239Y127173D01*
X335569Y128097D01*
X335808Y129049D01*
X335952Y130020D01*
X336000Y131000D01*
X161000Y125000D02*
X161136Y123965D01*
X161536Y123000D01*
X162172Y122172D01*
X163000Y121536D01*
X163965Y121136D01*
X165000Y121000D01*
Y299000D02*
X163965Y298864D01*
X163000Y298464D01*
X162172Y297828D01*
X161536Y297000D01*
X161136Y296035D01*
X161000Y295000D01*
X456077Y165235D02*
X456108Y168765D01*
X463985D02*
X464015Y165235D01*
X343938Y184939D02*
Y212439D01*
X345000Y213500D02*
X455000D01*
X456000Y184939D02*
Y212439D01*
X464000Y212439D02*
X464000Y184939D01*
X345000Y221377D02*
X455061D01*
X336062Y184939D02*
Y212439D01*
X336077Y165235D02*
X336108Y168765D01*
X343985D02*
X344015Y165235D01*
X171000Y299000D02*
X636000D01*
X637123D01*
X633251Y288882D02*
X636179Y291811D01*
X631490Y287122D02*
X633251Y288882D01*
X628561Y270061D02*
Y280051D01*
Y260181D02*
Y270061D01*
X631490Y253110D02*
X632196Y252405D01*
X636071Y248530D01*
X639000Y125000D02*
Y241458D01*
X475000Y121000D02*
X635000D01*
X474000D02*
X475000D01*
X464000Y131000D02*
Y131439D01*
Y147000D01*
Y149938D01*
X456000Y122500D02*
Y150000D01*
X345000Y121439D02*
X454939D01*
X344000Y122439D02*
Y140000D01*
Y149938D01*
X336000Y134000D02*
Y149938D01*
Y131000D02*
Y134000D01*
X165000Y121000D02*
X326000D01*
X161000Y125000D02*
Y295000D01*
X165000Y299000D02*
X168000D01*
X171000D01*
M02*
